<svg width="101" height="55" viewBox="0 0 101 55" fill="none" xmlns="http://www.w3.org/2000/svg">
<path d="M84.253 3.45728L50.4198 14.6592L16.5524 3.45728L0.356445 26.2599L50.4198 42.8467L100.449 26.2599L84.253 3.45728Z" fill="#006754"/>
<path opacity="0.45" d="M6.25842 25.3293L47.7778 40.7194L33.5033 27.0245C33.5033 27.0245 10.0672 21.5399 6.25842 25.3293Z" fill="#004B40"/>
<path opacity="0.45" d="M94.5813 25.3293L53.062 40.7194L67.3364 27.0245C67.3021 27.0245 90.7382 21.5399 94.5813 25.3293Z" fill="#004B40"/>
<path d="M50.4198 42.8466L0.356445 26.2599V28.4205L50.4198 45.0072L100.449 28.4205V26.2599L50.4198 42.8466Z" fill="#A85000"/>
<path d="M23.7583 52.8186L29.5573 38.0933L48.2238 44.2759L23.7583 52.8186Z" fill="#773A08"/>
<path opacity="0.45" d="M25.3711 48.5639L48.2239 44.2759L29.5573 38.0933L25.3711 48.5639Z" fill="#773A08"/>
<path d="M50.4199 43.5115L23.7583 52.8187L25.7485 54.8463L50.4199 46.3369L75.057 54.8463L77.0815 52.8187L50.4199 43.5115Z" fill="#BDF8D4"/>
<path d="M77.0815 52.8186L71.2482 38.0933L52.5817 44.2759L77.0815 52.8186Z" fill="#773A08"/>
<path opacity="0.45" d="M75.4345 48.5639L52.5817 44.2759L71.2482 38.0933L75.4345 48.5639Z" fill="#773A08"/>
<path d="M50.4198 46.3369C51.4242 46.3369 52.2384 45.5482 52.2384 44.5752C52.2384 43.6022 51.4242 42.8135 50.4198 42.8135C49.4154 42.8135 48.6012 43.6022 48.6012 44.5752C48.6012 45.5482 49.4154 46.3369 50.4198 46.3369Z" fill="white" fill-opacity="0.5"/>
<path d="M82.8119 3.45728L50.42 19.0801L18.028 3.45728C16.5525 5.35196 4.68005 24.5314 4.68005 24.5314C4.81731 24.5314 4.92025 24.5647 5.0575 24.5647C34.8416 27.4566 43.1112 36.5311 45.8563 38.7249C48.6013 40.952 50.4543 40.7193 50.4543 40.7193C50.4543 40.7193 52.3072 40.952 55.0523 38.7249C57.7974 36.5311 66.0669 27.4566 95.851 24.5647C95.9883 24.5647 96.0912 24.5314 96.2285 24.5314C96.1599 24.5314 84.2531 5.3852 82.8119 3.45728Z" fill="#F5B304"/>
<path d="M96.1597 24.5315C96.0224 24.5315 95.9195 24.5647 95.7822 24.5647C65.9981 27.4566 57.7286 36.5311 54.9835 38.725C52.2384 40.9521 50.3855 40.7194 50.3855 40.7194C50.3855 40.7194 48.5326 40.9521 45.7875 38.725C43.0424 36.5311 34.7728 27.4566 4.98872 24.5647C4.85146 24.5647 4.74852 24.5315 4.61127 24.5315C4.37108 24.8971 4.61127 25.1631 4.61127 25.1631C34.7042 27.9885 42.6993 37.0962 45.4443 39.3233C48.1894 41.5171 50.3512 41.3509 50.3512 41.3509C50.3512 41.3509 52.5129 41.5171 55.258 39.3233C58.0031 37.1295 65.9981 28.0217 96.0911 25.1631C96.1597 25.1631 96.3999 24.8971 96.1597 24.5315Z" fill="#87D1A4"/>
<path d="M81.5764 1.62904C65.003 -2.2268 50.3855 10.9695 50.3855 10.9695C50.3855 10.9695 35.7679 -2.2268 19.1945 1.62904C19.1945 1.62904 14.4936 8.60943 8.0083 20.4761C8.0083 20.4761 40.6404 24.0328 50.3855 37.2956C60.1305 24.0328 92.7626 20.4761 92.7626 20.4761C86.2774 8.60943 81.5764 1.62904 81.5764 1.62904Z" fill="#FBF9EF"/>
<path d="M92.7626 20.4762C92.7626 20.4762 60.1305 24.0329 50.3855 37.2956C40.6748 24.0329 8.04261 20.4762 8.04261 20.4762C8.04261 20.4762 8.04261 21.5399 6.224 23.634C6.224 23.634 35.8365 25.6949 46.611 37.5948C49.1502 40.387 50.3855 40.0546 50.3855 40.0546C50.3855 40.0546 51.6551 40.387 54.16 37.5948C64.9001 25.6949 94.547 23.634 94.547 23.634C92.7627 21.5066 92.7626 20.4762 92.7626 20.4762Z" fill="#BDF8D4"/>
<path d="M79.7235 3.02517C79.7235 3.02517 67.3363 -0.0329115 50.3855 12.698C33.4689 0.000328064 21.0474 3.02517 21.0474 3.02517L12.6749 18.7809C38.1355 20.4762 50.3855 32.9412 50.3855 32.9412C50.3855 32.9412 62.6354 20.4762 88.096 18.7809L79.7235 3.02517ZM50.4198 31.4454C50.4198 31.4454 38.9591 20.0773 14.6651 17.8502L21.6994 3.68997C21.6994 3.68997 33.8807 1.39641 50.4198 13.4293C66.9589 1.39641 79.1402 3.68997 79.1402 3.68997L86.1744 17.8502C61.8805 20.0773 50.4198 31.4454 50.4198 31.4454Z" fill="#006754"/>
<path opacity="0.2" d="M53.5422 24.5626C58.1174 21.294 72.4147 14.0608 82.0224 15.058" stroke="#BDF8D4" stroke-width="3" stroke-linecap="round"/>
<path opacity="0.2" d="M53.5422 15.3904C57.6027 12.3106 68.1598 6.2763 77.9048 6.77742" stroke="#BDF8D4" stroke-width="3" stroke-linecap="round"/>
<path opacity="0.2" d="M53.5422 20.044C57.9458 16.7273 69.3951 10.2288 79.9636 10.7685" stroke="#BDF8D4" stroke-width="3" stroke-linecap="round"/>
<path opacity="0.2" d="M47.709 24.5626C43.1339 21.294 28.8366 14.0608 19.2288 15.058" stroke="#BDF8D4" stroke-width="3" stroke-linecap="round"/>
<path opacity="0.2" d="M47.709 15.3904C43.6486 12.3106 33.0914 6.2763 23.3464 6.77742" stroke="#BDF8D4" stroke-width="3" stroke-linecap="round"/>
<path opacity="0.2" d="M47.709 20.044C43.3054 16.7273 31.8561 10.2288 21.2876 10.7685" stroke="#BDF8D4" stroke-width="3" stroke-linecap="round"/>
<path d="M50.4197 10.9695C50.4197 10.9695 50.7628 9.80606 51.4148 10.1385C51.4148 10.1385 51.003 28.9855 51.6893 36.3316C51.8609 38.1598 53.5079 40.6528 54.1599 41.5835H53.302L53.0618 42.348C53.0618 42.348 50.5227 38.193 50.4197 36.5643C49.905 29.2515 50.1795 12.7312 50.4197 10.9695Z" fill="#BC8F7B"/>
</svg>
