<svg width="61" height="103" viewBox="0 0 61 103" fill="none" xmlns="http://www.w3.org/2000/svg">
<path d="M9.73958 95.0263L9.5749 94.9631C14.3201 83.1686 14.5783 76.8743 14.5952 76.8131L14.7758 76.8189C14.7707 76.8832 14.4983 83.1984 9.73958 95.0263Z" fill="#992B2B"/>
<path d="M10.2594 95.1531L10.0948 95.0899C14.84 83.2954 15.0982 77.0011 15.1151 76.9399L15.2946 76.9495C15.2906 77.01 15.0221 83.3262 10.2594 95.1531Z" fill="#992B2B"/>
<path d="M8.81892 94.6479L8.65424 94.5846C13.4005 82.7863 13.8196 76.3697 13.8247 76.3053L14.0042 76.315C13.9991 76.3793 13.5776 82.82 8.81892 94.6479Z" fill="#992B2B"/>
<path d="M4.47814 92.5279L4.30818 92.4838C4.34525 92.3498 9.4612 79.3834 13.9684 76.322L14.0692 76.4631C9.61238 79.4801 4.53102 92.398 4.47814 92.5279Z" fill="#992B2B"/>
<path d="M4.76672 92.6029L4.59675 92.5588C4.63382 92.4248 9.74582 79.4573 14.2569 76.397L14.3577 76.5381C9.89701 79.554 4.8196 92.473 4.76672 92.6029Z" fill="#992B2B"/>
<path d="M5.17322 93.2009L5.00855 93.1376C9.97047 80.2379 14.4874 76.3295 14.5328 76.288L14.6526 76.4217C14.628 76.4645 10.1174 80.3499 5.17322 93.2009Z" fill="#992B2B"/>
<path d="M5.58835 93.4769L5.41443 93.4318C10.3803 80.5331 14.9025 76.6056 14.9426 76.5832L15.0595 76.712C15.0194 76.7344 10.5326 80.626 5.58835 93.4769Z" fill="#992B2B"/>
<path d="M8.39118 94.6477L8.22757 94.5806C8.28652 94.4441 14.2315 80.8392 13.985 76.6301L14.1658 76.6196C14.4136 80.87 8.63913 94.0882 8.39118 94.6477Z" fill="#992B2B"/>
<path d="M9.05236 94.9834L8.88373 94.9192C8.92398 94.7737 14.6118 81.0569 14.2767 76.8618L14.4546 76.8464C14.795 81.0839 9.28767 94.4084 9.05236 94.9834Z" fill="#992B2B"/>
<path d="M6.06688 93.4164L5.90326 93.3493C6.17606 92.7307 12.5724 78.2293 14.1263 76.7776L14.2521 76.9046C12.7225 78.3298 6.13402 93.2656 6.06688 93.4164Z" fill="#992B2B"/>
<path d="M7.80748 94.1843L7.64098 94.1123C7.69145 94.0064 12.7283 83.1946 14.2222 77.1349L14.3922 77.179C12.899 83.2512 7.85796 94.0783 7.80748 94.1843Z" fill="#992B2B"/>
<path d="M7.52402 94.1066L7.36147 94.0357C7.41301 93.926 12.4459 83.1131 13.9398 77.0534L14.1098 77.0976C12.6166 83.1697 7.57556 93.9969 7.52402 94.1066Z" fill="#992B2B"/>
<path d="M6.983 93.9333L6.81303 93.8892C9.13791 87.996 14.5857 76.1581 14.6443 76.0379L14.8069 76.1088C14.7564 76.2148 9.30576 88.0478 6.983 93.9333Z" fill="#992B2B"/>
<path d="M6.69455 93.8584L6.52458 93.8143C8.84946 87.921 14.3012 76.0842 14.3559 75.963L14.5184 76.0339C14.468 76.1398 9.02127 87.9738 6.69455 93.8584Z" fill="#992B2B"/>
<path d="M10.0231 95.1041L9.84761 95.0339C14.7391 83.2773 14.851 76.9451 14.8669 76.8877L15.0525 76.8907C15.0563 76.9533 14.9291 83.3102 10.0231 95.1041Z" fill="#BC4646"/>
<path d="M9.00477 94.6961L8.8293 94.6259C13.7197 82.8732 13.8316 76.541 13.8486 76.4797L14.0342 76.4828C14.037 76.5492 13.9097 82.9061 9.00477 94.6961Z" fill="#BC4646"/>
<path d="M4.18067 92.4549L4.00414 92.3885C4.04121 92.2545 9.31237 79.3243 14.1753 76.3553L14.2769 76.5089C9.46116 79.445 4.23355 92.325 4.18067 92.4549Z" fill="#BC4646"/>
<path d="M4.49691 92.537L4.32433 92.4717C4.3614 92.3377 9.63257 79.4074 14.4915 76.4374L14.5931 76.591C9.7774 79.5271 4.54979 92.4071 4.49691 92.537Z" fill="#BC4646"/>
<path d="M4.88922 93.0943L4.71269 93.028C9.81402 80.1604 14.6712 76.3239 14.7163 76.2987L14.8339 76.4401C14.7856 76.4768 9.96676 80.2821 4.88922 93.0943Z" fill="#BC4646"/>
<path d="M5.29144 93.3711L5.11491 93.3048C10.2152 80.441 15.0773 76.6017 15.1224 76.5765L15.239 76.7217C15.181 76.7476 10.3592 80.5481 5.29144 93.3711Z" fill="#BC4646"/>
<path d="M8.65535 94.749L8.48489 94.6761C8.54385 94.5395 14.7012 80.9939 14.3153 76.7527L14.5022 76.7356C14.8923 81.023 8.91121 94.1916 8.65535 94.749Z" fill="#992B2B"/>
<path d="M9.26582 95.0388L9.0943 94.9697C9.13349 94.828 15.0032 81.1585 14.5089 76.9261L14.6968 76.9051C15.1942 81.1875 9.513 94.4669 9.26582 95.0388Z" fill="#BC4646"/>
<path d="M5.74173 93.2747L5.57127 93.2017C5.85197 92.5851 12.4855 78.1452 14.1511 76.7184L14.2788 76.8542C12.6453 78.2565 5.82073 93.1269 5.74173 93.2747Z" fill="#BC4646"/>
<path d="M8.03866 94.314L7.86925 94.2372C7.90102 94.1223 13.1582 83.3718 14.6284 77.306L14.8063 77.3521C13.3368 83.4305 8.09019 94.2042 8.03866 94.314Z" fill="#BC4646"/>
<path d="M7.11036 93.9786L6.94308 93.8942C6.99963 93.7816 12.7522 82.6796 14.2285 76.6071L14.4104 76.6543C12.933 82.7306 7.16903 93.8584 7.11036 93.9786Z" fill="#BC4646"/>
<path d="M6.96726 93.9292L6.79468 93.8639C9.1857 87.992 14.848 76.2057 14.9056 76.0893L15.075 76.1661C15.0213 76.2835 9.36118 88.0621 6.96726 93.9292Z" fill="#BC4646"/>
<path d="M6.33481 93.765L6.16223 93.6997C8.55826 87.825 14.2195 76.0425 14.2731 75.9251L14.4425 76.0019C14.3889 76.1193 8.72872 87.8979 6.33481 93.765Z" fill="#BC4646"/>
<g style="mix-blend-mode:multiply">
<path d="M40.7008 10.2812C41.007 10.2522 41.304 10.1588 41.5715 10.0076C41.839 9.85639 42.0707 9.6509 42.2505 9.40523C42.2166 9.57955 42.2049 9.75699 42.2156 9.93352C42.2316 10.2059 42.3031 10.4716 42.4259 10.7153C42.5487 10.9589 42.7203 11.1755 42.9307 11.3525C43.1411 11.5295 43.3861 11.6633 43.6514 11.7461C43.9167 11.8289 44.1969 11.8591 44.4757 11.8348C44.9282 11.7976 45.3579 11.6174 45.6998 11.3217C45.5385 11.654 45.4673 12.0201 45.4931 12.3846C45.5088 12.6567 45.5799 12.9223 45.7024 13.1658C45.8248 13.4093 45.996 13.6258 46.2061 13.8028C46.4162 13.9797 46.6609 14.1135 46.9259 14.1962C47.1908 14.279 47.4708 14.3092 47.7494 14.2849C47.8138 14.2807 47.8714 14.2707 47.933 14.2616C47.8729 14.4856 47.8504 14.7171 47.8664 14.9471C47.8821 15.2192 47.9532 15.4848 48.0756 15.7283C48.1981 15.9718 48.3693 16.1884 48.5794 16.3653C48.7895 16.5422 49.0342 16.676 49.2991 16.7588C49.5641 16.8416 49.8441 16.8717 50.1226 16.8474C50.2732 16.8375 50.4223 16.8105 50.567 16.7669C50.3341 16.9861 50.1531 17.2521 50.0367 17.5459C49.9204 17.8398 49.8717 18.1543 49.8942 18.4668C49.9253 18.9851 50.1561 19.4701 50.5404 19.8245C50.9246 20.1789 51.4339 20.3765 51.9661 20.3777C51.6468 20.5906 51.3894 20.8812 51.2199 21.2202C51.0504 21.5591 50.9747 21.9344 51.0005 22.3084C51.0166 22.5807 51.0881 22.8465 51.2109 23.0901C51.3337 23.3337 51.5053 23.5503 51.7157 23.7273C51.9261 23.9043 52.1711 24.0381 52.4363 24.1209C52.7016 24.2037 52.9818 24.2339 53.2607 24.2096C53.8262 24.1516 54.3489 23.8798 54.7168 23.4525C55.0847 23.0252 55.2684 22.4765 55.2286 21.924C55.1975 21.4058 54.9663 20.9211 54.5818 20.5673C54.1972 20.2135 53.6876 20.0169 53.1556 20.0169C53.4757 19.8038 53.7337 19.5126 53.9034 19.1729C54.0731 18.8332 54.1486 18.4571 54.1223 18.0824C54.1061 17.8105 54.0346 17.5452 53.912 17.302C53.7893 17.0587 53.6181 16.8424 53.4081 16.6655C53.1982 16.4887 52.9537 16.3549 52.6889 16.2719C52.4242 16.1889 52.1445 16.1584 51.866 16.1822C51.7157 16.1939 51.5668 16.2209 51.4217 16.2626C51.6545 16.0435 51.8356 15.7775 51.9519 15.4836C52.0682 15.1897 52.1169 14.8753 52.0945 14.5628C52.0788 14.2907 52.0077 14.0251 51.8853 13.7816C51.7629 13.5381 51.5916 13.3216 51.3815 13.1446C51.1714 12.9677 50.9267 12.8339 50.6618 12.7512C50.3968 12.6684 50.1168 12.6382 49.8383 12.6625C49.7762 12.6671 49.7144 12.6762 49.6535 12.6896C49.714 12.4644 49.7368 12.2316 49.7212 12.0003C49.6995 11.6157 49.567 11.2465 49.339 10.935C49.1109 10.6235 48.7965 10.3823 48.432 10.2393C48.0675 10.0963 47.6676 10.0573 47.2783 10.1266C46.8891 10.196 46.5263 10.3709 46.2316 10.6314C46.3945 10.2985 46.4674 9.93144 46.4433 9.56559C46.4267 9.29343 46.3548 9.02795 46.2318 8.78458C46.1089 8.54121 45.9372 8.32479 45.727 8.1479C45.5167 7.971 45.2719 7.83716 45.0069 7.75415C44.7418 7.67113 44.4618 7.6406 44.1831 7.66433C43.8771 7.69418 43.5803 7.78785 43.3129 7.939C43.0455 8.09014 42.8138 8.29523 42.6333 8.54034C42.6693 8.36625 42.681 8.18854 42.6683 8.01204C42.6526 7.73994 42.5815 7.47438 42.4591 7.23087C42.3366 6.98737 42.1654 6.77082 41.9553 6.59389C41.7452 6.41695 41.5005 6.28318 41.2355 6.2004C40.9706 6.11762 40.6906 6.0875 40.4121 6.11179C39.8457 6.16784 39.3217 6.43909 38.9534 6.86685C38.5851 7.29461 38.4022 7.84445 38.4441 8.39741C38.4625 8.6679 38.5355 8.93142 38.6591 9.17279C38.7827 9.41415 38.9543 9.62858 39.1641 9.80371C39.3739 9.97884 39.6177 10.1112 39.8814 10.1932C40.1451 10.2751 40.4236 10.305 40.7008 10.2812Z" fill="#FFE6BD"/>
<path d="M32.3251 10.1466C32.8864 10.09 33.406 9.82224 33.7737 9.40026C34.1413 8.97828 34.328 8.43529 34.2941 7.88653C34.4201 8.34613 34.7073 8.74606 35.106 9.01717C35.5046 9.28827 35.9897 9.4135 36.4773 9.37118C37.0432 9.31415 37.5665 9.04266 37.9345 8.61521C38.3026 8.18776 38.4859 7.63857 38.445 7.08592C38.4293 6.81387 38.3582 6.54835 38.2358 6.30488C38.1134 6.06142 37.9422 5.8449 37.7321 5.66799C37.5221 5.49109 37.2774 5.35734 37.0125 5.27457C36.7475 5.19181 36.4676 5.16168 36.1891 5.18596C35.6274 5.24166 35.1071 5.50913 34.7393 5.93134C34.3715 6.35354 34.1852 6.89709 34.2201 7.44608C34.0956 6.98477 33.8083 6.58315 33.4084 6.31153C33.0086 6.03992 32.5217 5.91563 32.0329 5.96043C31.4666 6.01652 30.9425 6.28746 30.5736 6.71479C30.2048 7.14212 30.0208 7.6916 30.0613 8.24468C30.0772 8.51743 30.1488 8.78358 30.2717 9.02756C30.3947 9.27155 30.5666 9.48845 30.7774 9.66557C30.9882 9.84269 31.2337 9.97647 31.4995 10.0591C31.7652 10.1417 32.0459 10.1715 32.3251 10.1466Z" fill="#FFE6BD"/>
<path d="M34.1309 45.9289C34.1108 45.6101 34.0154 45.3012 33.8522 45.0266C33.6891 44.7519 33.4626 44.5191 33.1906 44.3462C33.7114 44.2456 34.1787 43.9605 34.5027 43.5457C34.8267 43.1309 34.9846 42.6156 34.9462 42.0986C34.9193 41.6765 34.7601 41.2746 34.4904 40.9477C34.2206 40.6207 33.8534 40.3846 33.4388 40.2716C33.7598 40.0599 34.0184 39.7685 34.1875 39.4278C34.3567 39.0872 34.4302 38.7095 34.4005 38.3343C34.3702 37.8267 34.1481 37.351 33.7775 36.9995C33.4069 36.6481 32.9142 36.4461 32.3954 36.4328C32.6521 36.214 32.854 35.9403 32.9852 35.6334C33.1163 35.3264 33.173 34.9947 33.1508 34.6646C33.1207 34.1782 32.915 33.7206 32.5702 33.3735C32.2255 33.0264 31.7643 32.8126 31.2691 32.7702C31.4551 32.4184 31.5396 32.0245 31.5132 31.6317C31.4813 31.1012 31.2393 30.6066 30.8386 30.2532C30.4378 29.8998 29.9101 29.7154 29.3675 29.7394C29.5663 29.3816 29.658 28.9771 29.6319 28.5732C29.6015 28.0621 29.3767 27.5832 29.0017 27.2311C28.6268 26.8789 28.1289 26.679 27.6062 26.6706C27.804 26.3121 27.8944 25.9073 27.8667 25.5034C27.8382 25.0453 27.6536 24.6118 27.3424 24.2724C27.0313 23.933 26.6116 23.7071 26.1504 23.6309C26.5113 23.2054 26.6897 22.6605 26.6473 22.1131C26.6236 21.7325 26.4923 21.3674 26.2681 21.0584C26.0438 20.7494 25.7355 20.5089 25.3774 20.3635C25.5735 20.1498 25.7242 19.9 25.8202 19.6292C25.9163 19.3585 25.9559 19.0722 25.9367 18.7876C25.9056 18.2955 25.6956 17.833 25.3448 17.4837C25.624 17.364 25.8752 17.1883 26.082 16.9682C26.2888 16.7481 26.4467 16.4883 26.5452 16.206C26.6438 15.9236 26.6809 15.6249 26.654 15.3292C26.6272 15.0336 26.5372 14.7476 26.3897 14.49C26.9241 14.4094 27.4107 14.1348 27.7525 13.7209C28.0942 13.307 28.2659 12.7842 28.2333 12.2568C28.2293 12.1798 28.22 12.1032 28.2056 12.0275C28.3598 12.0477 28.5162 12.0506 28.6716 12.0362C29.2333 11.9803 29.753 11.7102 30.1182 11.2844C30.4835 10.8585 30.6649 10.3112 30.6232 9.76077C30.6076 9.48991 30.5371 9.22557 30.4156 8.98319C30.2942 8.74081 30.1243 8.52527 29.9159 8.34916C29.7075 8.17306 29.4648 8.03992 29.202 7.95755C28.9391 7.87518 28.6615 7.84522 28.3852 7.86943C27.8239 7.92627 27.3048 8.19661 26.9398 8.62221C26.5747 9.04781 26.3929 9.59461 26.4335 10.1448C26.4388 10.2222 26.4493 10.2992 26.4651 10.3751C26.3097 10.354 26.152 10.3507 25.9952 10.3654C25.6381 10.403 25.295 10.5272 24.9969 10.7266C24.6988 10.9261 24.4552 11.1945 24.288 11.5077C24.1208 11.8209 24.0354 12.1689 24.0395 12.5203C24.0436 12.8716 24.137 13.2152 24.3113 13.52C23.7734 13.6029 23.2846 13.882 22.9435 14.3012C22.6024 14.7204 22.4342 15.2486 22.473 15.7792C22.5045 16.2703 22.7149 16.7316 23.066 17.0793C22.6476 17.2565 22.2949 17.5575 22.0578 17.9396C21.8208 18.3217 21.7114 18.7655 21.7451 19.2082C21.7694 19.5893 21.9014 19.9547 22.1263 20.2639C22.3513 20.573 22.6603 20.8136 23.0189 20.9588C22.8225 21.1732 22.6717 21.4236 22.5754 21.695C22.4791 21.9664 22.4394 22.2533 22.4586 22.5385C22.4871 22.9967 22.6717 23.4301 22.9829 23.7695C23.294 24.109 23.7137 24.3348 24.1749 24.411C23.8159 24.8376 23.6378 25.3816 23.678 25.9288C23.7084 26.44 23.9332 26.9188 24.3082 27.271C24.6831 27.6232 25.181 27.8231 25.7037 27.8315C25.5045 28.1892 25.4128 28.5937 25.4393 28.9977C25.4719 29.5289 25.7144 30.0239 26.1154 30.378C26.5165 30.7321 27.0445 30.9174 27.5879 30.8948C27.3882 31.2523 27.2964 31.657 27.3234 32.061C27.3518 32.5479 27.5571 33.0065 27.9021 33.3539C28.2472 33.7013 28.7093 33.9146 29.2051 33.9554C29.019 34.3072 28.9346 34.7011 28.9609 35.0939C28.9905 35.6016 29.2126 36.0775 29.5837 36.4285C29.9548 36.7795 30.4482 36.9803 30.9672 36.9915C30.71 37.2108 30.5077 37.4851 30.3763 37.7927C30.245 38.1003 30.1883 38.4327 30.2107 38.7635C30.2376 39.1856 30.3968 39.5875 30.6665 39.9145C30.9363 40.2414 31.3035 40.4775 31.7182 40.5906C31.3986 40.8038 31.1412 41.0953 30.9723 41.4357C30.8033 41.776 30.7288 42.1528 30.7564 42.5279C30.7775 42.8466 30.8738 43.1552 31.0378 43.4293C31.2019 43.7035 31.4291 43.9357 31.7017 44.1077C31.1798 44.2081 30.7115 44.4934 30.3866 44.9087C30.0617 45.324 29.903 45.8401 29.941 46.3581C29.9683 46.7718 30.1212 47.1663 30.3802 47.4911C30.0749 47.3645 29.7413 47.3141 29.4092 47.3445C28.8578 47.4041 28.3481 47.6693 27.9861 48.085C27.6241 48.5007 27.4376 49.035 27.4655 49.5767C27.4973 50.0556 27.6973 50.5066 28.0316 50.8534C27.8241 50.6739 27.581 50.5379 27.3171 50.4538C27.0531 50.3698 26.7737 50.3393 26.4959 50.3643C25.9342 50.4201 25.4145 50.6902 25.0492 51.116C24.684 51.5419 24.5026 52.0892 24.5442 52.6397C24.5765 53.1407 24.7941 53.6104 25.1563 53.9611C24.8129 53.7869 24.4246 53.7128 24.0368 53.7476C23.4755 53.8044 22.9565 54.0747 22.5914 54.5003C22.2264 54.9259 22.0446 55.4727 22.0852 56.0229C22.1178 56.5697 22.3707 57.0785 22.7882 57.4377C22.5372 57.3634 22.2732 57.3375 22.0108 57.3614C21.4491 57.4172 20.9294 57.6873 20.5641 58.1131C20.1989 58.539 20.0175 59.0863 20.0591 59.6368C20.0835 60.0331 20.2245 60.4125 20.4652 60.7291C20.7059 61.0457 21.036 61.286 21.4155 61.4209C21.372 61.4196 21.3284 61.4207 21.2849 61.4244C20.7236 61.4812 20.2045 61.7515 19.8395 62.1771C19.4744 62.6028 19.2926 63.1495 19.3333 63.6997C19.3648 64.1558 19.5498 64.5867 19.8594 64.9251C20.9669 64.8681 22.0656 64.6938 23.1725 64.6243C23.4355 64.2381 23.564 63.7801 23.5385 63.3197C23.5139 62.9238 23.3725 62.5449 23.1316 62.2289C22.8907 61.913 22.5605 61.6735 22.1811 61.5394L22.3128 61.5321C22.8737 61.4743 23.3921 61.2037 23.757 60.7783C24.1218 60.3529 24.304 59.8067 24.2644 59.2567C24.2305 58.7103 23.9779 58.202 23.5614 57.842C23.812 57.9182 24.0764 57.9441 24.3388 57.9183C24.7445 57.8763 25.1312 57.7226 25.4542 57.4749C25.7771 57.2273 26.023 56.8959 26.1633 56.5193C26.3036 56.1426 26.3325 55.7362 26.2466 55.3472C26.1608 54.9581 25.9638 54.6025 25.6784 54.3215C26.0218 54.4957 26.4101 54.5698 26.7979 54.535C27.3592 54.4782 27.8782 54.2078 28.2433 53.7822C28.6083 53.3566 28.7901 52.8098 28.7495 52.2596C28.7177 51.7808 28.5177 51.3297 28.1834 50.9829C28.3907 51.1627 28.6335 51.299 28.8972 51.3837C29.1609 51.4684 29.4401 51.4998 29.718 51.4759C30.1015 51.4355 30.4684 51.2954 30.7805 51.0701C31.0927 50.8448 31.3387 50.5425 31.4931 50.1946C31.6474 49.8468 31.7045 49.466 31.6583 49.092C31.6122 48.7179 31.4645 48.3642 31.2306 48.0675C31.5361 48.1899 31.868 48.2385 32.1987 48.2093C32.7575 48.1478 33.2725 47.8747 33.6336 47.4485C33.9947 47.0224 34.1732 46.4769 34.1309 45.9289Z" fill="#FFE6BD"/>
<path d="M52.1201 32.478C52.2771 32.4989 52.4361 32.5024 52.5944 32.4886C53.1557 32.4308 53.6746 32.1601 54.0398 31.7347C54.405 31.3092 54.5874 30.7628 54.5478 30.2127C54.5188 29.7476 54.3289 29.3082 54.0095 28.9667C53.69 28.6252 53.2599 28.4019 52.7898 28.3335L52.8872 28.3297C53.449 28.2728 53.9685 28.0024 54.3339 27.5767C54.6993 27.151 54.8812 26.6041 54.8406 26.0538C54.825 25.7828 54.7544 25.5184 54.6328 25.276C54.5113 25.0335 54.3412 24.8179 54.1327 24.6418C53.9241 24.4656 53.6812 24.3324 53.4181 24.25C53.1551 24.1677 52.8771 24.1377 52.6006 24.1619C52.0388 24.2187 51.5193 24.4891 51.1539 24.9148C50.7886 25.3405 50.6066 25.8875 50.6472 26.4378C50.6762 26.9029 50.866 27.3423 51.1855 27.6838C51.505 28.0253 51.9351 28.2486 52.4052 28.317L52.3078 28.3208C51.7455 28.3767 51.2252 28.6466 50.859 29.0722C50.4928 29.4978 50.3102 30.045 50.3505 30.5957C50.3704 30.8993 50.4584 31.194 50.6084 31.4586C50.7584 31.7233 50.9666 31.9515 51.2182 32.127C51.0626 32.1059 50.9048 32.1027 50.7479 32.1174C50.3161 32.1623 49.9064 32.3335 49.5723 32.6087C49.2382 32.8839 48.9952 33.2503 48.8752 33.66C48.7552 34.0697 48.7637 34.5036 48.8997 34.905C49.0356 35.3064 49.2926 35.6566 49.637 35.9099C49.413 35.8536 49.1801 35.8356 48.9487 35.8566C48.5505 35.8972 48.1701 36.0453 47.85 36.2844C47.53 36.5235 47.283 36.8443 47.1367 37.2107C46.9904 37.5771 46.9505 37.9747 47.0215 38.3591C47.0926 38.7435 47.2717 39.0995 47.5389 39.3872C47.3289 39.189 47.0775 39.0377 46.8015 38.9434C46.5254 38.8491 46.2312 38.814 45.9384 38.8405C45.3766 38.8974 44.8571 39.1678 44.4917 39.5935C44.1263 40.0192 43.9444 40.5661 43.985 41.1164C44.0015 41.3877 44.0725 41.6524 44.1939 41.8954C44.3153 42.1384 44.4847 42.3549 44.6925 42.5325C44.3412 42.3488 43.9412 42.2704 43.5419 42.3071C42.9805 42.3649 42.4616 42.6356 42.0964 43.061C41.7312 43.4865 41.5489 44.0329 41.5885 44.583C41.6034 44.7879 41.6484 44.9893 41.722 45.181C41.5115 44.9801 41.2586 44.8267 40.9805 44.7312C40.7025 44.6356 40.4059 44.6002 40.1109 44.6274C39.7298 44.6673 39.365 44.8055 39.0538 45.0279C38.7426 45.2503 38.4962 45.5489 38.34 45.8931C38.1837 46.2374 38.1231 46.6149 38.1644 46.9869C38.2057 47.359 38.3474 47.7122 38.575 48.0105C38.3636 47.7975 38.1058 47.634 37.8204 47.5315C37.535 47.429 37.229 47.3903 36.9246 47.418C36.5674 47.454 36.2238 47.5769 35.9251 47.7753C35.6265 47.9738 35.3822 48.2415 35.2145 48.5542C35.0468 48.867 34.9611 49.2147 34.9651 49.5658C34.9691 49.9169 35.0627 50.2603 35.2374 50.5647C34.8339 50.2819 34.3369 50.1543 33.8396 50.2057C33.2774 50.2616 32.7572 50.5317 32.3916 50.9577C32.026 51.3836 31.8445 51.9311 31.8862 52.4817C31.9072 52.8247 32.016 53.1558 32.2026 53.4446C32.3893 53.7334 32.6477 53.9706 32.9542 54.1344C32.63 54.0713 32.2942 54.0837 31.9736 54.1705C31.653 54.2574 31.3567 54.4162 31.1082 54.6344C30.8598 54.8526 30.6662 55.1241 30.5429 55.4271C30.4197 55.73 30.3702 56.0561 30.3984 56.3791C30.4253 56.8013 30.5846 57.2033 30.8546 57.5303C31.1246 57.8574 31.4921 58.0935 31.9071 58.2066C31.5993 58.1887 31.2902 58.2366 31.0014 58.3472C30.7126 58.4577 30.451 58.6282 30.2347 58.8467C30.0184 59.0653 29.8526 59.3266 29.7489 59.6127C29.6451 59.8988 29.6059 60.2027 29.6339 60.5033C29.6501 60.774 29.7211 61.0382 29.8428 61.2804C29.9645 61.5226 30.1346 61.738 30.343 61.914C30.5515 62.0901 30.7942 62.2233 31.057 62.3059C31.3198 62.3885 31.5975 62.4188 31.8739 62.3952C32.4353 62.3374 32.9542 62.0667 33.3194 61.6412C33.6845 61.2158 33.8669 60.6694 33.8273 60.1193C33.8016 59.6967 33.6427 59.2941 33.3725 58.9669C33.1024 58.6396 32.7342 58.4038 32.3186 58.2917C32.8022 58.3147 33.2818 58.1767 33.6793 57.9001C34.0769 57.6235 34.3691 57.2246 34.5084 56.7683C34.6476 56.3119 34.6258 55.825 34.4465 55.3866C34.2671 54.9483 33.9408 54.5843 33.5205 54.3538C33.7176 54.3949 33.9203 54.4067 34.1218 54.3889C34.4783 54.3514 34.8209 54.2278 35.1187 54.0293C35.4165 53.8307 35.6603 53.5634 35.828 53.2514C35.9958 52.9394 36.0822 52.5925 36.0796 52.2419C36.0769 51.8914 35.9853 51.5482 35.8129 51.2432C36.2164 51.526 36.7134 51.6536 37.2107 51.6021C37.7721 51.5443 38.291 51.2737 38.6562 50.8482C39.0214 50.4227 39.2037 49.8763 39.1642 49.3262C39.1373 48.9231 38.9909 48.538 38.7427 48.2181C38.9543 48.4308 39.2121 48.5942 39.4975 48.6967C39.7828 48.7991 40.0887 48.838 40.3931 48.8106C40.9553 48.7547 41.4755 48.4846 41.8411 48.0586C42.2066 47.6327 42.3882 47.0852 42.3465 46.5347C42.3348 46.3281 42.2902 46.125 42.2141 45.9328C42.4229 46.136 42.6752 46.2912 42.9534 46.3875C43.2316 46.4839 43.5288 46.5189 43.8241 46.4902C44.3863 46.4344 44.9065 46.1642 45.2721 45.7383C45.6376 45.3123 45.8192 44.7649 45.7775 44.2143C45.7617 43.9429 45.691 43.678 45.5695 43.4349C45.4481 43.1918 45.2783 42.9754 45.07 42.7982C45.4214 42.982 45.8213 43.0604 46.2207 43.0237C46.7824 42.9668 47.302 42.6964 47.6674 42.2707C48.0327 41.845 48.2147 41.2981 48.1741 40.7477C48.1435 40.2784 47.9504 39.8356 47.6266 39.4921C47.8374 39.6904 48.0894 39.8418 48.3661 39.9362C48.6428 40.0307 48.9376 40.066 49.231 40.0398C49.7924 39.982 50.3113 39.7113 50.6764 39.2858C51.0416 38.8604 51.224 38.314 51.1844 37.7639C51.1655 37.4665 51.0815 37.1775 50.9382 36.9164C50.7948 36.6553 50.5955 36.4281 50.3536 36.2503C50.5775 36.3072 50.8105 36.3252 51.0419 36.3036C51.6036 36.2467 52.1232 35.9763 52.4886 35.5506C52.8539 35.1249 53.0359 34.578 52.9953 34.0276C52.9778 33.7201 52.8902 33.4213 52.7387 33.1531C52.5873 32.8849 52.3759 32.6542 52.1201 32.478Z" fill="#FFE6BD"/>
</g>
<path d="M15.6104 77.1709C15.4578 77.339 15.2561 77.4582 15.032 77.5129C14.8079 77.5676 14.572 77.5551 14.3554 77.4771C14.1388 77.3992 13.9517 77.2594 13.8189 77.0762C13.6861 76.893 13.6137 76.6751 13.6115 76.4513C13.6092 76.2275 13.6771 76.0082 13.8061 75.8226C13.9352 75.6369 14.1194 75.4936 14.3344 75.4115C14.5493 75.3294 14.785 75.3124 15.0101 75.3628C15.2353 75.4132 15.4393 75.5285 15.5953 75.6936C15.7991 75.8879 15.915 76.1524 15.9179 76.4293C15.9207 76.7062 15.8101 76.9728 15.6104 77.1709Z" fill="#A85000"/>
<path d="M15.5852 75.6992C15.4788 75.6745 15.3675 75.6769 15.2623 75.7062C15.157 75.7355 15.0614 75.7907 14.9847 75.8664C14.908 75.9422 14.8529 76.0358 14.8246 76.1383C14.7964 76.2408 14.796 76.3486 14.8235 76.4513C14.8511 76.5539 14.9056 76.6479 14.9817 76.7242C15.0579 76.8004 15.1531 76.8562 15.2582 76.8862C15.3632 76.9161 15.4745 76.9193 15.5811 76.8953C15.6878 76.8712 15.7862 76.8209 15.8668 76.7491C15.9157 76.5653 15.9155 76.3725 15.8663 76.1889C15.817 76.0052 15.7203 75.8367 15.5852 75.6992Z" fill="#A0510A"/>
<path d="M15.162 76.0655C14.8861 75.776 14.74 75.3923 14.756 74.9986C14.7719 74.6049 14.9486 74.2334 15.2471 73.9658L19.0174 70.5818C19.3175 70.3154 19.7141 70.1747 20.1209 70.1904C20.5276 70.206 20.9115 70.3767 21.1888 70.6653C21.4639 70.956 21.6091 71.3402 21.593 71.7343C21.5768 72.1283 21.4006 72.5001 21.1027 72.7688L17.3295 76.1479C17.0302 76.4143 16.6343 76.5551 16.2282 76.5396C15.8221 76.5242 15.4388 76.3537 15.162 76.0655Z" fill="#A85000"/>
<path d="M19.0877 70.5426C19.0839 71.0542 19.2845 71.5474 19.6475 71.9191C19.8523 72.1491 20.1119 72.3273 20.4039 72.4381C20.6958 72.5489 21.0113 72.5891 21.3229 72.5551C21.5359 72.2599 21.631 71.8998 21.5905 71.5418C21.5501 71.1838 21.3769 70.8522 21.1031 70.6086C20.8293 70.365 20.4735 70.226 20.1018 70.2174C19.7302 70.2087 19.3679 70.3311 19.0824 70.5617L19.0877 70.5426Z" fill="#A0510A"/>
<path d="M15.5987 75.3293C15.5538 75.2821 15.519 75.2268 15.4962 75.1666C15.4734 75.1064 15.4631 75.0424 15.4658 74.9783C15.4686 74.9142 15.4844 74.8513 15.5123 74.7931C15.5402 74.7349 15.5797 74.6827 15.6286 74.6393L19.2616 71.3839C19.31 71.34 19.367 71.3059 19.4291 71.2834C19.4912 71.2609 19.5573 71.2505 19.6236 71.2528C19.6899 71.2551 19.7551 71.2701 19.8153 71.2969C19.8756 71.3237 19.9298 71.3618 19.9749 71.409C20.0202 71.4559 20.0555 71.5111 20.0787 71.5713C20.1019 71.6314 20.1126 71.6955 20.1102 71.7597C20.1078 71.8239 20.0923 71.887 20.0647 71.9454C20.037 72.0038 19.9977 72.0563 19.949 72.1L16.3109 75.3582C16.2121 75.445 16.082 75.4907 15.9487 75.4853C15.8154 75.4799 15.6897 75.4238 15.5987 75.3293Z" fill="#D67116"/>
<path d="M22.5758 71.8543C22.0057 72.3835 20.9573 72.2221 20.2671 71.5012C19.5768 70.7803 19.5 69.7713 20.0859 69.2462C20.6717 68.7211 21.7093 68.8755 22.3956 69.5954C23.082 70.3153 23.1645 71.334 22.5758 71.8543Z" fill="#A85000"/>
<path d="M22.4826 70.7671C22.2527 70.9701 21.7855 70.8365 21.4375 70.4712C21.0894 70.1059 20.9854 69.6398 21.2113 69.4357C21.4372 69.2317 21.9083 69.3663 22.2563 69.7316C22.6044 70.0969 22.7085 70.5631 22.4826 70.7671Z" fill="#D67116"/>
<path d="M21.7703 70.0487C22.3325 69.2879 22.6208 68.3692 22.591 67.434L22.779 67.4131C22.8166 68.2605 22.5934 69.0997 22.1375 69.8239C22.9207 69.428 24.0995 69.1635 24.4527 69.2347L24.404 69.4108C23.5134 69.4548 22.649 69.7177 21.8922 70.1747L21.7703 70.0487Z" fill="#773A08"/>
<path d="M45.3398 10.6621C45.3756 11.0838 45.5396 11.4857 45.811 11.8172C46.0824 12.1486 46.4492 12.3947 46.8649 12.5244C47.2807 12.654 47.7268 12.6615 48.1468 12.5457C48.5669 12.4299 48.9422 12.1961 49.2252 11.8739C49.5082 11.5517 49.6863 11.1554 49.737 10.7352C49.7877 10.315 49.7087 9.88959 49.51 9.51282C49.3113 9.13605 49.0018 8.82477 48.6206 8.61829C48.2394 8.41181 47.8036 8.31938 47.3682 8.3527C46.7831 8.39852 46.2408 8.66753 45.8604 9.10059C45.4801 9.53365 45.2928 10.0953 45.3398 10.6621Z" fill="#B75F08"/>
<path d="M46.7783 9.33641C46.6999 9.53309 46.6857 9.74831 46.7376 9.95306C46.7894 10.1578 46.9048 10.3422 47.0682 10.4815C47.2316 10.6207 47.4352 10.708 47.6514 10.7317C47.8677 10.7554 48.0862 10.7142 48.2776 10.6138C48.469 10.5134 48.6239 10.3586 48.7216 10.1702C48.8193 9.98186 48.855 9.76899 48.824 9.56034C48.7929 9.35168 48.6965 9.15727 48.5478 9.00333C48.3991 8.84939 48.2053 8.74332 47.9924 8.69942C47.7443 8.62946 47.4776 8.6571 47.2503 8.77634C47.023 8.89559 46.8534 9.09682 46.7783 9.33641Z" fill="#D67116"/>
<path d="M41.8844 8.14409C41.9204 8.56584 42.0847 8.96777 42.3565 9.29911C42.6283 9.63044 42.9953 9.87631 43.4113 10.0056C43.8272 10.135 44.2734 10.142 44.6935 10.0257C45.1136 9.90952 45.4886 9.6753 45.7713 9.35266C46.0541 9.03002 46.2317 8.63345 46.2818 8.21305C46.332 7.79265 46.2523 7.36729 46.053 6.99071C45.8537 6.61413 45.5436 6.30323 45.162 6.09729C44.7803 5.89135 44.3442 5.79962 43.9088 5.83367C43.619 5.85581 43.3365 5.93324 43.0777 6.06151C42.8188 6.18977 42.5887 6.36634 42.4006 6.58106C42.2125 6.79577 42.07 7.0444 41.9814 7.31265C41.8928 7.58089 41.8598 7.86345 41.8844 8.14409Z" fill="#B75F08"/>
<path d="M43.3243 6.7982C43.2459 6.99488 43.2317 7.2101 43.2836 7.41485C43.3354 7.6196 43.4508 7.80402 43.6142 7.94325C43.7777 8.08248 43.9812 8.16982 44.1975 8.19349C44.4137 8.21716 44.6322 8.17603 44.8236 8.07563C45.015 7.97524 45.17 7.82041 45.2677 7.63203C45.3654 7.44365 45.4011 7.23078 45.37 7.02213C45.3389 6.81347 45.2425 6.61907 45.0938 6.46513C44.9452 6.31119 44.7513 6.20511 44.5385 6.16122C44.2903 6.09125 44.0236 6.11889 43.7963 6.23814C43.569 6.35738 43.3994 6.55862 43.3243 6.7982Z" fill="#D67116"/>
<path d="M37.9202 6.51603C37.9552 6.93797 38.1186 7.34039 38.3897 7.67239C38.6608 8.00439 39.0274 8.25109 39.4432 8.38128C39.859 8.51148 40.3053 8.51933 40.7257 8.40385C41.1461 8.28837 41.5217 8.05474 41.8051 7.73249C42.0885 7.41025 42.2668 7.01385 42.3177 6.59342C42.3685 6.17299 42.2895 5.74739 42.0907 5.37043C41.8919 4.99347 41.5822 4.68208 41.2007 4.47561C40.8192 4.26915 40.3831 4.17688 39.9475 4.21047C39.3634 4.25657 38.822 4.52515 38.4419 4.95734C38.0619 5.38953 37.8743 5.95005 37.9202 6.51603Z" fill="#B75F08"/>
<path d="M39.3619 5.17886C39.2827 5.37538 39.2677 5.59071 39.3188 5.79578C39.37 6.00085 39.4849 6.18578 39.648 6.32559C39.8111 6.4654 40.0145 6.55335 40.2308 6.57758C40.4472 6.60181 40.666 6.56115 40.8577 6.46108C41.0494 6.36101 41.2049 6.20636 41.303 6.01801C41.4011 5.82966 41.4371 5.61669 41.4063 5.40784C41.3755 5.19899 41.2793 5.00434 41.1306 4.85016C40.9819 4.69599 40.788 4.58972 40.575 4.54571C40.3275 4.47481 40.0611 4.50159 39.8338 4.62019C39.6066 4.73879 39.437 4.93961 39.3619 5.17886Z" fill="#D67116"/>
<path d="M33.5987 5.58297C33.6337 6.00491 33.7971 6.40732 34.0682 6.73933C34.3393 7.07133 34.7059 7.31802 35.1217 7.44822C35.5375 7.57841 35.9838 7.58627 36.4042 7.47079C36.8246 7.35531 37.2002 7.12168 37.4836 6.79943C37.7669 6.47718 37.9453 6.08079 37.9961 5.66035C38.047 5.23992 37.968 4.81432 37.7692 4.43737C37.5704 4.06041 37.2606 3.74902 36.8792 3.54255C36.4977 3.33608 36.0616 3.24381 35.626 3.2774C35.3365 3.29972 35.0545 3.37708 34.7959 3.50505C34.5374 3.63302 34.3074 3.80909 34.1191 4.02321C33.9308 4.23733 33.788 4.48529 33.6987 4.75292C33.6094 5.02055 33.5754 5.30261 33.5987 5.58297Z" fill="#B75F08"/>
<path d="M35.0305 4.23501C34.9513 4.43153 34.9363 4.64687 34.9874 4.85193C35.0386 5.057 35.1534 5.24193 35.3165 5.38174C35.4796 5.52155 35.6831 5.6095 35.8994 5.63373C36.1158 5.65797 36.3346 5.6173 36.5263 5.51724C36.718 5.41717 36.8734 5.26252 36.9715 5.07417C37.0696 4.88581 37.1057 4.67284 37.0749 4.46399C37.0441 4.25515 36.9478 4.06049 36.7992 3.90632C36.6505 3.75214 36.4566 3.64587 36.2436 3.60186C35.9961 3.53097 35.7297 3.55774 35.5024 3.67634C35.2752 3.79494 35.1056 3.99576 35.0305 4.23501Z" fill="#D67116"/>
<path d="M29.2705 6.32682C29.3056 6.74877 29.469 7.15118 29.74 7.48318C30.0111 7.81519 30.3778 8.06188 30.7935 8.19207C31.2093 8.32227 31.6557 8.33012 32.0761 8.21464C32.4965 8.09916 32.8721 7.86553 33.1554 7.54328C33.4388 7.22104 33.6172 6.82464 33.668 6.40421C33.7188 5.98378 33.6399 5.55818 33.441 5.18122C33.2422 4.80427 32.9325 4.49287 32.551 4.28641C32.1696 4.07994 31.7335 3.98767 31.2979 4.02126C30.7137 4.06736 30.1723 4.33594 29.7923 4.76813C29.4122 5.20031 29.2246 5.76084 29.2705 6.32682Z" fill="#B75F08"/>
<path d="M30.7113 4.99364C30.6329 5.19031 30.6187 5.40554 30.6705 5.61028C30.7224 5.81503 30.8378 5.99946 31.0012 6.13869C31.1646 6.27792 31.3682 6.36525 31.5844 6.38893C31.8007 6.4126 32.0192 6.37146 32.2106 6.27106C32.4019 6.17067 32.5569 6.01584 32.6546 5.82746C32.7523 5.63908 32.788 5.42622 32.757 5.21756C32.7259 5.00891 32.6295 4.8145 32.4808 4.66056C32.3321 4.50662 32.1383 4.40055 31.9254 4.35665C31.6772 4.28669 31.4106 4.31433 31.1833 4.43357C30.956 4.55281 30.7864 4.75405 30.7113 4.99364Z" fill="#D67116"/>
<path d="M25.292 8.27376C25.327 8.6957 25.4904 9.09811 25.7615 9.43012C26.0326 9.76212 26.3992 10.0088 26.815 10.139C27.2308 10.2692 27.6771 10.2771 28.0975 10.1616C28.5179 10.0461 28.8936 9.81247 29.1769 9.49022C29.4603 9.16797 29.6386 8.77158 29.6895 8.35114C29.7403 7.93071 29.6613 7.50512 29.4625 7.12816C29.2637 6.7512 28.954 6.43981 28.5725 6.23334C28.191 6.02688 27.7549 5.93461 27.3193 5.9682C27.0299 5.99052 26.7478 6.06787 26.4893 6.19584C26.2307 6.32381 26.0007 6.49989 25.8125 6.714C25.6242 6.92812 25.4813 7.17608 25.392 7.44371C25.3027 7.71134 25.2687 7.9934 25.292 8.27376Z" fill="#B75F08"/>
<path d="M26.7338 6.93655C26.6546 7.13307 26.6395 7.3484 26.6907 7.55347C26.7418 7.75854 26.8567 7.94347 27.0198 8.08328C27.1829 8.22309 27.3863 8.31104 27.6027 8.33527C27.819 8.35951 28.0378 8.31884 28.2295 8.21877C28.4213 8.11871 28.5767 7.96406 28.6748 7.77571C28.7729 7.58735 28.809 7.37438 28.7781 7.16553C28.7473 6.95668 28.6511 6.76203 28.5024 6.60785C28.3538 6.45368 28.1599 6.34741 27.9469 6.3034C27.6993 6.23251 27.4329 6.25928 27.2057 6.37788C26.9784 6.49648 26.8088 6.6973 26.7338 6.93655Z" fill="#D67116"/>
<path d="M22.8092 10.8017C22.8443 11.2236 23.0077 11.626 23.2787 11.958C23.5498 12.29 23.9164 12.5367 24.3322 12.6669C24.748 12.7971 25.1944 12.805 25.6148 12.6895C26.0352 12.574 26.4108 12.3404 26.6941 12.0181C26.9775 11.6959 27.1559 11.2995 27.2067 10.8791C27.2575 10.4586 27.1786 10.033 26.9797 9.65608C26.7809 9.27912 26.4712 8.96772 26.0897 8.76126C25.7082 8.55479 25.2721 8.46253 24.8365 8.49612C24.2524 8.54222 23.711 8.8108 23.331 9.24298C22.9509 9.67517 22.7633 10.2357 22.8092 10.8017Z" fill="#B75F08"/>
<path d="M24.2627 9.46755C24.1835 9.66408 24.1684 9.87941 24.2196 10.0845C24.2707 10.2895 24.3856 10.4745 24.5487 10.6143C24.7118 10.7541 24.9153 10.842 25.1316 10.8663C25.3479 10.8905 25.5668 10.8498 25.7585 10.7498C25.9502 10.6497 26.1056 10.4951 26.2037 10.3067C26.3018 10.1184 26.3379 9.90538 26.3071 9.69654C26.2763 9.48769 26.18 9.29303 26.0314 9.13886C25.8827 8.98468 25.6888 8.87842 25.4758 8.8344C25.2283 8.76565 24.9628 8.79339 24.7362 8.9117C24.5095 9.03001 24.3396 9.2295 24.2627 9.46755Z" fill="#D67116"/>
<path d="M21.1961 13.9987C21.2322 14.4204 21.3965 14.8223 21.6682 15.1537C21.94 15.485 22.3071 15.7309 22.723 15.8602C23.139 15.9895 23.5852 15.9965 24.0053 15.8803C24.4253 15.7641 24.8004 15.5299 25.0831 15.2072C25.3658 14.8846 25.5434 14.488 25.5936 14.0676C25.6437 13.6472 25.5641 13.2219 25.3648 12.8453C25.1654 12.4687 24.8554 12.1578 24.4737 11.9519C24.0921 11.7459 23.656 11.6542 23.2206 11.6882C22.9309 11.7109 22.6487 11.7887 22.3902 11.9171C22.1316 12.0455 21.9017 12.2221 21.7137 12.4367C21.5256 12.6513 21.3831 12.8997 21.2943 13.1677C21.2055 13.4358 21.1721 13.7181 21.1961 13.9987Z" fill="#B75F08"/>
<path d="M22.6379 12.6615C22.5607 12.8574 22.5472 13.0715 22.5992 13.275C22.6513 13.4786 22.7665 13.6618 22.9293 13.8001C23.0921 13.9383 23.2947 14.0249 23.5099 14.0483C23.725 14.0717 23.9424 14.0307 24.1327 13.9308C24.3231 13.8309 24.4773 13.677 24.5747 13.4897C24.672 13.3024 24.7078 13.0906 24.6773 12.883C24.6467 12.6754 24.5512 12.4818 24.4037 12.3284C24.2562 12.1749 24.0637 12.0688 23.8521 12.0245C23.6039 11.9534 23.3367 11.9806 23.1092 12.1C22.8816 12.2194 22.7121 12.4213 22.6379 12.6615Z" fill="#D67116"/>
<path d="M20.4804 17.4901C20.5165 17.9119 20.6808 18.3138 20.9525 18.6451C21.2243 18.9765 21.5914 19.2223 22.0073 19.3517C22.4233 19.481 22.8695 19.488 23.2896 19.3718C23.7096 19.2556 24.0847 19.0213 24.3674 18.6987C24.6501 18.376 24.8277 17.9795 24.8779 17.5591C24.928 17.1387 24.8484 16.7133 24.6491 16.3367C24.4498 15.9602 24.1397 15.6493 23.758 15.4433C23.3764 15.2374 22.9403 15.1456 22.5048 15.1797C22.2152 15.2023 21.933 15.2801 21.6745 15.4085C21.4159 15.537 21.186 15.7135 20.998 15.9282C20.8099 16.1428 20.6674 16.3912 20.5786 16.6592C20.4898 16.9272 20.4564 17.2096 20.4804 17.4901Z" fill="#B75F08"/>
<path d="M21.9221 16.1529C21.8448 16.3488 21.8313 16.5629 21.8834 16.7665C21.9355 16.9701 22.0507 17.1533 22.2135 17.2915C22.3763 17.4298 22.5789 17.5164 22.794 17.5398C23.0092 17.5631 23.2265 17.5221 23.4169 17.4223C23.6073 17.3224 23.7615 17.1684 23.8589 16.9811C23.9562 16.7938 23.992 16.5821 23.9614 16.3745C23.9309 16.1669 23.8354 15.9733 23.6879 15.8198C23.5404 15.6663 23.3479 15.5603 23.1363 15.5159C22.8881 15.446 22.6214 15.4736 22.3941 15.5928C22.1669 15.7121 21.9973 15.9133 21.9221 16.1529Z" fill="#D67116"/>
<path d="M21.2767 20.9061C21.3127 21.3279 21.477 21.7298 21.7488 22.0611C22.0206 22.3925 22.3876 22.6383 22.8036 22.7677C23.2196 22.897 23.6658 22.904 24.0858 22.7878C24.5059 22.6716 24.881 22.4373 25.1637 22.1147C25.4464 21.7921 25.624 21.3955 25.6741 20.9751C25.7243 20.5547 25.6447 20.1293 25.4453 19.7527C25.246 19.3762 24.9359 19.0653 24.5543 18.8593C24.1727 18.6534 23.7366 18.5617 23.3011 18.5957C23.0115 18.6184 22.7293 18.6961 22.4707 18.8246C22.2121 18.953 21.9823 19.1296 21.7942 19.3442C21.6062 19.5588 21.4637 19.8072 21.3749 20.0752C21.2861 20.3432 21.2527 20.6256 21.2767 20.9061Z" fill="#B75F08"/>
<path d="M22.7146 19.568C22.6362 19.7646 22.622 19.9799 22.6738 20.1846C22.7257 20.3894 22.8411 20.5738 23.0045 20.713C23.1679 20.8523 23.3715 20.9396 23.5877 20.9633C23.804 20.9869 24.0225 20.9458 24.2139 20.8454C24.4052 20.745 24.5602 20.5902 24.6579 20.4018C24.7556 20.2134 24.7913 20.0006 24.7603 19.7919C24.7292 19.5832 24.6328 19.3888 24.4841 19.2349C24.3354 19.081 24.1416 18.9749 23.9287 18.931C23.6805 18.8621 23.4144 18.8902 23.1874 19.0093C22.9604 19.1284 22.7906 19.329 22.7146 19.568Z" fill="#D67116"/>
<path d="M22.5978 24.4009C22.6331 24.823 22.7968 25.2254 23.0682 25.5573C23.3396 25.8891 23.7066 26.1356 24.1226 26.2655C24.5386 26.3953 24.985 26.4028 25.4054 26.2868C25.8258 26.1709 26.2012 25.9368 26.4843 25.6142C26.7673 25.2915 26.9452 24.8948 26.9955 24.4742C27.0458 24.0536 26.9661 23.628 26.7667 23.2512C26.5673 22.8745 26.257 22.5634 25.8751 22.3575C25.4932 22.1516 25.0568 22.06 24.6211 22.0944C24.0371 22.1404 23.4959 22.4092 23.1164 22.8418C22.737 23.2743 22.5504 23.8352 22.5978 24.4009Z" fill="#B75F08"/>
<path d="M24.0438 23.0484C23.9654 23.2451 23.9512 23.4603 24.0031 23.6651C24.0549 23.8698 24.1703 24.0543 24.3337 24.1935C24.4971 24.3327 24.7007 24.4201 24.9169 24.4437C25.1332 24.4674 25.3517 24.4263 25.5431 24.3259C25.7345 24.2255 25.8894 24.0707 25.9871 23.8823C26.0848 23.6939 26.1206 23.481 26.0895 23.2724C26.0584 23.0637 25.962 22.8693 25.8133 22.7154C25.6646 22.5614 25.4708 22.4554 25.2579 22.4115C25.0098 22.3415 24.7431 22.3691 24.5158 22.4884C24.2885 22.6076 24.1189 22.8089 24.0438 23.0484Z" fill="#D67116"/>
<path d="M24.5049 27.539C24.5402 27.961 24.7039 28.3634 24.9753 28.6953C25.2468 29.0272 25.6137 29.2737 26.0297 29.4035C26.4457 29.5334 26.8921 29.5408 27.3125 29.4249C27.7329 29.309 28.1084 29.0749 28.3914 28.7522C28.6744 28.4296 28.8523 28.0329 28.9026 27.6123C28.9529 27.1917 28.8733 26.7661 28.6738 26.3893C28.4744 26.0125 28.1641 25.7015 27.7822 25.4956C27.4003 25.2897 26.9639 25.1981 26.5283 25.2324C25.9442 25.2784 25.403 25.5473 25.0235 25.9799C24.6441 26.4124 24.4575 26.9732 24.5049 27.539Z" fill="#B75F08"/>
<path d="M25.9426 26.2007C25.8634 26.3972 25.8484 26.6126 25.8995 26.8176C25.9507 27.0227 26.0656 27.2076 26.2287 27.3474C26.3917 27.4872 26.5952 27.5752 26.8115 27.5994C27.0279 27.6237 27.2467 27.583 27.4384 27.4829C27.6301 27.3829 27.7855 27.2282 27.8837 27.0399C27.9818 26.8515 28.0178 26.6385 27.987 26.4297C27.9562 26.2208 27.8599 26.0262 27.7113 25.872C27.5626 25.7178 27.3687 25.6116 27.1557 25.5676C26.9082 25.4988 26.6428 25.5265 26.4161 25.6449C26.1894 25.7632 26.0195 25.9627 25.9426 26.2007Z" fill="#D67116"/>
<path d="M26.5224 30.7057C26.5582 31.1273 26.7222 31.5293 26.9936 31.8607C27.2651 32.1922 27.6318 32.4383 28.0476 32.568C28.4633 32.6976 28.9094 32.705 29.3295 32.5893C29.7495 32.4735 30.1248 32.2397 30.4078 31.9175C30.6908 31.5953 30.869 31.199 30.9197 30.7788C30.9703 30.3585 30.8914 29.9332 30.6927 29.5564C30.494 29.1796 30.1845 28.8683 29.8032 28.6619C29.422 28.4554 28.9862 28.363 28.5508 28.3963C27.9657 28.4421 27.4234 28.7111 27.0431 29.1442C26.6627 29.5772 26.4754 30.1389 26.5224 30.7057Z" fill="#B75F08"/>
<path d="M27.9642 29.3685C27.8858 29.5652 27.8716 29.7804 27.9235 29.9852C27.9753 30.1899 28.0907 30.3743 28.2541 30.5136C28.4175 30.6528 28.6211 30.7401 28.8374 30.7638C29.0536 30.7875 29.2721 30.7463 29.4635 30.6459C29.6549 30.5455 29.8098 30.3907 29.9075 30.2023C30.0052 30.014 30.041 29.8011 30.0099 29.5924C29.9788 29.3838 29.8824 29.1894 29.7337 29.0354C29.5851 28.8815 29.3912 28.7754 29.1784 28.7315C28.9302 28.6616 28.6635 28.6892 28.4362 28.8084C28.2089 28.9277 28.0393 29.1289 27.9642 29.3685Z" fill="#D67116"/>
<path d="M28.2858 33.8269C28.3209 34.2498 28.4846 34.6531 28.7563 34.9858C29.028 35.3185 29.3954 35.5656 29.8121 35.696C30.2289 35.8264 30.6761 35.8341 31.0974 35.7182C31.5186 35.6023 31.895 35.368 32.1787 35.0449C32.4625 34.7219 32.641 34.3245 32.6916 33.9031C32.7423 33.4818 32.6627 33.0553 32.4632 32.6777C32.2636 32.3001 31.9529 31.9884 31.5703 31.7818C31.1878 31.5753 30.7507 31.4834 30.3142 31.5175C29.7291 31.5634 29.1868 31.8324 28.8064 32.2654C28.4261 32.6985 28.2388 33.2601 28.2858 33.8269Z" fill="#B75F08"/>
<path d="M29.7275 32.4897C29.6491 32.6864 29.6349 32.9016 29.6868 33.1064C29.7386 33.3111 29.854 33.4955 30.0174 33.6348C30.1809 33.774 30.3844 33.8613 30.6007 33.885C30.8169 33.9087 31.0354 33.8676 31.2268 33.7672C31.4182 33.6668 31.5732 33.5119 31.6709 33.3236C31.7686 33.1352 31.8043 32.9223 31.7732 32.7137C31.7421 32.505 31.6457 32.3106 31.497 32.1566C31.3484 32.0027 31.1545 31.8966 30.9417 31.8527C30.6935 31.7839 30.4273 31.812 30.2003 31.9311C29.9733 32.0502 29.8036 32.2507 29.7275 32.4897Z" fill="#D67116"/>
<path d="M29.6537 37.5965C29.689 38.0185 29.8527 38.4209 30.1241 38.7528C30.3956 39.0847 30.7625 39.3312 31.1785 39.461C31.5945 39.5909 32.0409 39.5983 32.4613 39.4824C32.8817 39.3664 33.2572 39.1324 33.5402 38.8097C33.8232 38.4871 34.0011 38.0903 34.0514 37.6697C34.1017 37.2491 34.0221 36.8235 33.8226 36.4468C33.6232 36.07 33.3129 35.759 32.931 35.5531C32.5491 35.3472 32.1127 35.2556 31.6771 35.2899C31.093 35.3359 30.5518 35.6048 30.1723 36.0373C29.7929 36.4699 29.6063 37.0307 29.6537 37.5965Z" fill="#B75F08"/>
<path d="M31.0955 36.2593C31.0163 36.4558 31.0012 36.6712 31.0524 36.8762C31.1035 37.0813 31.2184 37.2662 31.3815 37.406C31.5446 37.5458 31.748 37.6338 31.9644 37.658C32.1807 37.6823 32.3995 37.6416 32.5912 37.5415C32.783 37.4415 32.9384 37.2868 33.0365 37.0985C33.1346 36.9101 33.1707 36.6971 33.1398 36.4883C33.109 36.2794 33.0128 36.0848 32.8641 35.9306C32.7155 35.7764 32.5215 35.6702 32.3086 35.6262C32.061 35.5563 31.7951 35.5836 31.5681 35.7021C31.3412 35.8205 31.1714 36.0207 31.0955 36.2593Z" fill="#D67116"/>
<path d="M30.2638 41.4567C30.2995 41.8784 30.4635 42.2803 30.735 42.6118C31.0064 42.9432 31.3731 43.1893 31.7889 43.319C32.2046 43.4486 32.6507 43.456 33.0708 43.3403C33.4909 43.2245 33.8661 42.9907 34.1492 42.6685C34.4322 42.3463 34.6103 41.95 34.661 41.5298C34.7117 41.1096 34.6327 40.6842 34.434 40.3074C34.2353 39.9306 33.9258 39.6194 33.5446 39.4129C33.1634 39.2064 32.7275 39.114 32.2921 39.1473C32.0023 39.1695 31.7197 39.2469 31.4608 39.375C31.2018 39.5032 30.9715 39.6796 30.7831 39.8941C30.5947 40.1087 30.4518 40.3571 30.3627 40.6253C30.2735 40.8934 30.2399 41.1759 30.2638 41.4567Z" fill="#B75F08"/>
<path d="M31.7055 40.1195C31.6282 40.3154 31.6147 40.5295 31.6668 40.733C31.7188 40.9366 31.834 41.1198 31.9968 41.2581C32.1596 41.3963 32.3622 41.4829 32.5774 41.5063C32.7925 41.5297 33.0099 41.4887 33.2002 41.3888C33.3906 41.2889 33.5448 41.135 33.6422 40.9477C33.7395 40.7604 33.7753 40.5487 33.7448 40.341C33.7142 40.1334 33.6187 39.9399 33.4712 39.7864C33.3237 39.6329 33.1312 39.5268 32.9196 39.4825C32.6714 39.4114 32.4043 39.4386 32.1767 39.558C31.9491 39.6774 31.7796 39.8793 31.7055 40.1195Z" fill="#D67116"/>
<path d="M29.4533 45.3667C29.4883 45.7886 29.6517 46.1911 29.9228 46.5231C30.1939 46.8551 30.5605 47.1018 30.9763 47.232C31.3921 47.3621 31.8384 47.37 32.2588 47.2545C32.6792 47.139 33.0548 46.9054 33.3382 46.5832C33.6215 46.2609 33.7999 45.8645 33.8508 45.4441C33.9016 45.0237 33.8226 44.5981 33.6238 44.2211C33.425 43.8441 33.1153 43.5327 32.7338 43.3263C32.3523 43.1198 31.9162 43.0276 31.4806 43.0611C30.8969 43.1083 30.3561 43.3771 29.9763 43.8091C29.5965 44.241 29.4085 44.801 29.4533 45.3667Z" fill="#B75F08"/>
<path d="M30.895 44.0296C30.8158 44.2261 30.8008 44.4414 30.8519 44.6465C30.9031 44.8516 31.0179 45.0365 31.181 45.1763C31.3441 45.3161 31.5476 45.4041 31.7639 45.4283C31.9803 45.4525 32.1991 45.4119 32.3908 45.3118C32.5825 45.2117 32.7379 45.0571 32.836 44.8687C32.9341 44.6804 32.9702 44.4674 32.9394 44.2585C32.9086 44.0497 32.8123 43.855 32.6637 43.7009C32.515 43.5467 32.3211 43.4404 32.1081 43.3964C31.8606 43.3255 31.5942 43.3523 31.3669 43.4709C31.1397 43.5895 30.9701 43.7903 30.895 44.0296Z" fill="#D67116"/>
<path d="M26.8833 48.6847C26.9193 49.1064 27.0836 49.5084 27.3554 49.8397C27.6272 50.171 27.9942 50.4169 28.4102 50.5462C28.8261 50.6756 29.2723 50.6826 29.6924 50.5664C30.1125 50.4501 30.4875 50.2159 30.7702 49.8933C31.0529 49.5706 31.2306 49.1741 31.2807 48.7537C31.3308 48.3333 31.2512 47.9079 31.0519 47.5313C30.8526 47.1547 30.5425 46.8438 30.1609 46.6379C29.7792 46.432 29.3431 46.3402 28.9077 46.3743C28.618 46.3969 28.3359 46.4747 28.0773 46.6031C27.8187 46.7316 27.5888 46.9081 27.4008 47.1227C27.2127 47.3373 27.0702 47.5858 26.9814 47.8538C26.8926 48.1218 26.8593 48.4042 26.8833 48.6847Z" fill="#A85000"/>
<path d="M28.325 47.3475C28.2467 47.5442 28.2325 47.7594 28.2843 47.9642C28.3361 48.1689 28.4516 48.3533 28.615 48.4926C28.7784 48.6318 28.9819 48.7191 29.1982 48.7428C29.4144 48.7665 29.633 48.7253 29.8243 48.6249C30.0157 48.5245 30.1707 48.3697 30.2684 48.1813C30.3661 47.993 30.4018 47.7801 30.3707 47.5714C30.3396 47.3628 30.2433 47.1684 30.0946 47.0144C29.9459 46.8605 29.752 46.7544 29.5392 46.7105C29.291 46.6406 29.0244 46.6682 28.7971 46.7874C28.5698 46.9067 28.4002 47.1079 28.325 47.3475Z" fill="#D67116"/>
<path d="M23.8367 51.7804C23.8717 52.2024 24.0351 52.6048 24.3062 52.9368C24.5773 53.2688 24.9439 53.5155 25.3597 53.6457C25.7755 53.7759 26.2218 53.7837 26.6422 53.6683C27.0626 53.5528 27.4382 53.3191 27.7216 52.9969C28.005 52.6746 28.1833 52.2783 28.2342 51.8578C28.285 51.4374 28.206 51.0118 28.0072 50.6348C27.8084 50.2579 27.4987 49.9465 27.1172 49.74C26.7357 49.5336 26.2996 49.4413 25.864 49.4749C25.2799 49.521 24.7385 49.7896 24.3584 50.2217C23.9784 50.6539 23.7908 51.2145 23.8367 51.7804Z" fill="#A85000"/>
<path d="M25.2783 50.4433C25.1991 50.6398 25.1841 50.8551 25.2352 51.0602C25.2864 51.2652 25.4013 51.4502 25.5643 51.59C25.7274 51.7298 25.9309 51.8178 26.1472 51.842C26.3636 51.8662 26.5824 51.8255 26.7741 51.7255C26.9658 51.6254 27.1212 51.4708 27.2193 51.2824C27.3175 51.0941 27.3535 50.8811 27.3227 50.6722C27.2919 50.4634 27.1956 50.2687 27.047 50.1146C26.8983 49.9604 26.7044 49.8541 26.4914 49.8101C26.2439 49.7403 25.978 49.7676 25.751 49.886C25.5241 50.0045 25.3543 50.2046 25.2783 50.4433Z" fill="#D67116"/>
<path d="M21.2924 55.2199C21.3274 55.6418 21.4908 56.0442 21.7619 56.3763C22.033 56.7083 22.3996 56.9549 22.8154 57.0851C23.2312 57.2153 23.6775 57.2232 24.0979 57.1077C24.5183 56.9922 24.8939 56.7586 25.1773 56.4364C25.4607 56.1141 25.639 55.7177 25.6899 55.2973C25.7407 54.8768 25.6617 54.4512 25.4629 54.0743C25.2641 53.6973 24.9544 53.3859 24.5729 53.1795C24.1914 52.973 23.7553 52.8807 23.3197 52.9143C22.7356 52.9604 22.1942 53.229 21.8141 53.6612C21.4341 54.0934 21.2465 54.6539 21.2924 55.2199Z" fill="#A85000"/>
<path d="M22.7341 53.8827C22.6549 54.0792 22.6399 54.2946 22.691 54.4996C22.7422 54.7047 22.8571 54.8896 23.0202 55.0294C23.1832 55.1693 23.3867 55.2572 23.603 55.2814C23.8194 55.3057 24.0382 55.265 24.2299 55.1649C24.4216 55.0649 24.577 54.9102 24.6752 54.7219C24.7733 54.5335 24.8093 54.3205 24.7785 54.1117C24.7477 53.9028 24.6514 53.7082 24.5028 53.554C24.3541 53.3998 24.1602 53.2936 23.9472 53.2496C23.6997 53.1797 23.4338 53.207 23.2068 53.3255C22.9799 53.4439 22.8101 53.6441 22.7341 53.8827Z" fill="#D67116"/>
<path d="M19.2056 58.8891C19.2406 59.311 19.404 59.7134 19.6751 60.0454C19.9462 60.3774 20.3128 60.6241 20.7286 60.7543C21.1444 60.8845 21.5907 60.8924 22.0111 60.7769C22.4315 60.6614 22.8071 60.4278 23.0905 60.1055C23.3739 59.7833 23.5522 59.3869 23.6031 58.9665C23.6539 58.546 23.5749 58.1204 23.3761 57.7435C23.1773 57.3665 22.8676 57.0551 22.4861 56.8487C22.1046 56.6422 21.6685 56.5499 21.2329 56.5835C20.6488 56.6296 20.1074 56.8982 19.7273 57.3304C19.3473 57.7626 19.1597 58.3231 19.2056 58.8891Z" fill="#A85000"/>
<path d="M20.6483 57.548C20.5691 57.7445 20.5541 57.9599 20.6052 58.1649C20.6564 58.37 20.7712 58.5549 20.9343 58.6947C21.0974 58.8345 21.3009 58.9225 21.5172 58.9467C21.7336 58.971 21.9524 58.9303 22.1441 58.8302C22.3358 58.7302 22.4912 58.5755 22.5893 58.3872C22.6874 58.1988 22.7235 57.9858 22.6927 57.777C22.6619 57.5681 22.5656 57.3735 22.417 57.2193C22.2683 57.0651 22.0744 56.9589 21.8614 56.9148C21.6139 56.8461 21.3485 56.8738 21.1218 56.9921C20.8951 57.1105 20.7252 57.3099 20.6483 57.548Z" fill="#D67116"/>
<path d="M18.4972 63.0431C18.5325 63.4651 18.6962 63.8675 18.9677 64.1994C19.2391 64.5313 19.606 64.7777 20.022 64.9076C20.438 65.0375 20.8845 65.0449 21.3048 64.929C21.7252 64.813 22.1007 64.5789 22.3837 64.2563C22.6667 63.9336 22.8446 63.5369 22.8949 63.1163C22.9452 62.6957 22.8656 62.2701 22.6661 61.8934C22.4667 61.5166 22.1564 61.2056 21.7745 60.9997C21.3926 60.7937 20.9562 60.7022 20.5206 60.7365C20.2312 60.7588 19.9492 60.8362 19.6908 60.9643C19.4323 61.0923 19.2025 61.2686 19.0146 61.4829C18.8266 61.6971 18.6841 61.9453 18.5953 62.213C18.5066 62.4807 18.4732 62.7628 18.4972 63.0431Z" fill="#A85000"/>
<path d="M19.9388 61.706C19.8596 61.9025 19.8446 62.1178 19.8957 62.3229C19.9469 62.528 20.0618 62.7129 20.2249 62.8527C20.388 62.9925 20.5914 63.0805 20.8078 63.1047C21.0241 63.1289 21.2429 63.0883 21.4346 62.9882C21.6264 62.8881 21.7818 62.7335 21.8799 62.5451C21.978 62.3568 22.014 62.1438 21.9832 61.9349C21.9524 61.7261 21.8562 61.5314 21.7075 61.3773C21.5588 61.2231 21.3649 61.1168 21.1519 61.0728C21.0294 61.0372 20.9008 61.0253 20.7734 61.0378C20.6461 61.0503 20.5226 61.0871 20.4099 61.1459C20.2973 61.2047 20.1977 61.2844 20.1169 61.3805C20.036 61.4766 19.9755 61.5872 19.9388 61.706Z" fill="#D67116"/>
<path d="M19.7694 67.0669C19.8052 67.4885 19.9691 67.8905 20.2406 68.2219C20.512 68.5534 20.8788 68.7995 21.2945 68.9292C21.7102 69.0588 22.1563 69.0662 22.5764 68.9505C22.9965 68.8347 23.3717 68.6009 23.6548 68.2787C23.9378 67.9565 24.1159 67.5602 24.1666 67.14C24.2173 66.7197 24.1383 66.2944 23.9396 65.9176C23.7409 65.5408 23.4314 65.2296 23.0502 65.0231C22.669 64.8166 22.2331 64.7242 21.7977 64.7575C21.2127 64.8033 20.6704 65.0723 20.29 65.5054C19.9096 65.9384 19.7224 66.5001 19.7694 67.0669Z" fill="#A85000"/>
<path d="M21.2229 65.7329C21.1445 65.9296 21.1303 66.1448 21.1821 66.3495C21.234 66.5543 21.3494 66.7387 21.5128 66.8779C21.6762 67.0172 21.8798 67.1045 22.096 67.1282C22.3123 67.1518 22.5308 67.1107 22.7222 67.0103C22.9135 66.9099 23.0685 66.7551 23.1662 66.5667C23.2639 66.3783 23.2996 66.1655 23.2686 65.9568C23.2375 65.7482 23.1411 65.5537 22.9924 65.3998C22.8437 65.2459 22.6499 65.1398 22.437 65.0959C22.1888 65.027 21.9227 65.0551 21.6957 65.1742C21.4687 65.2933 21.2989 65.4939 21.2229 65.7329Z" fill="#D67116"/>
<path d="M23.229 69.6763C23.2641 70.0982 23.4275 70.5006 23.6986 70.8326C23.9697 71.1646 24.3363 71.4113 24.7521 71.5415C25.1679 71.6717 25.6142 71.6796 26.0346 71.5641C26.455 71.4486 26.8306 71.215 27.114 70.8927C27.3973 70.5705 27.5757 70.1741 27.6265 69.7537C27.6774 69.3332 27.5984 68.9076 27.3996 68.5307C27.2007 68.1537 26.891 67.8423 26.5095 67.6359C26.1281 67.4294 25.692 67.3371 25.2564 67.3707C24.6727 67.4178 24.1319 67.6867 23.7521 68.1186C23.3722 68.5506 23.1842 69.1105 23.229 69.6763Z" fill="#A85000"/>
<path d="M24.6708 68.3391C24.5916 68.5357 24.5765 68.751 24.6277 68.9561C24.6788 69.1611 24.7937 69.3461 24.9568 69.4859C25.1199 69.6257 25.3233 69.7136 25.5397 69.7379C25.756 69.7621 25.9748 69.7214 26.1666 69.6214C26.3583 69.5213 26.5137 69.3666 26.6118 69.1783C26.7099 68.9899 26.746 68.777 26.7152 68.5681C26.6843 68.3593 26.5881 68.1646 26.4394 68.0104C26.2908 67.8563 26.0969 67.75 25.8839 67.706C25.6363 67.6351 25.3699 67.6619 25.1427 67.7805C24.9154 67.8991 24.7458 68.0999 24.6708 68.3391Z" fill="#D67116"/>
<path d="M27.27 68.0863C27.3058 68.508 27.4697 68.9099 27.7412 69.2414C28.0126 69.5728 28.3794 69.8189 28.7951 69.9486C29.2109 70.0783 29.6569 70.0857 30.077 69.9699C30.4971 69.8541 30.8724 69.6204 31.1554 69.2981C31.4384 68.9759 31.6165 68.5797 31.6672 68.1594C31.7179 67.7392 31.6389 67.3138 31.4402 66.9371C31.2415 66.5603 30.932 66.249 30.5508 66.0425C30.1696 65.836 29.7338 65.7436 29.2984 65.7769C29.0085 65.7991 28.726 65.8765 28.467 66.0047C28.2081 66.1328 27.9778 66.3092 27.7893 66.5238C27.6009 66.7383 27.458 66.9868 27.3689 67.2549C27.2798 67.523 27.2462 67.8056 27.27 68.0863Z" fill="#A85000"/>
<path d="M28.7117 66.7492C28.6344 66.9451 28.6209 67.1592 28.673 67.3628C28.7251 67.5664 28.8403 67.7496 29.0031 67.8878C29.1659 68.0261 29.3684 68.1127 29.5836 68.1361C29.7987 68.1595 30.0161 68.1184 30.2065 68.0186C30.3968 67.9187 30.5511 67.7648 30.6484 67.5774C30.7458 67.3901 30.7816 67.1784 30.751 66.9708C30.7204 66.7632 30.625 66.5696 30.4775 66.4161C30.3299 66.2626 30.1374 66.1566 29.9258 66.1122C29.6776 66.0412 29.4105 66.0683 29.1829 66.1877C28.9553 66.3071 28.7859 66.509 28.7117 66.7492Z" fill="#D67116"/>
<path d="M27.9582 63.8982C27.9932 64.3211 28.157 64.7243 28.4287 65.057C28.7003 65.3897 29.0678 65.6369 29.4845 65.7673C29.9012 65.8977 30.3485 65.9054 30.7697 65.7895C31.191 65.6736 31.5673 65.4393 31.8511 65.1162C32.1349 64.7932 32.3134 64.3958 32.364 63.9744C32.4146 63.553 32.3351 63.1266 32.1355 62.749C31.9359 62.3714 31.6252 62.0596 31.2427 61.8531C30.8602 61.6466 30.423 61.5546 29.9865 61.5888C29.4015 61.6346 28.8592 61.9037 28.4788 62.3367C28.0984 62.7698 27.9112 63.3314 27.9582 63.8982Z" fill="#A85000"/>
<path d="M29.3999 62.5611C29.3215 62.7578 29.3073 62.973 29.3591 63.1778C29.411 63.3825 29.5264 63.567 29.6898 63.7062C29.8532 63.8454 30.0568 63.9328 30.273 63.9564C30.4893 63.9801 30.7078 63.939 30.8992 63.8386C31.0905 63.7382 31.2455 63.5834 31.3432 63.395C31.4409 63.2066 31.4766 62.9937 31.4456 62.7851C31.4145 62.5764 31.3181 62.382 31.1694 62.2281C31.0207 62.0741 30.8269 61.9681 30.614 61.9242C30.3658 61.8542 30.0992 61.8818 29.8719 62.0011C29.6446 62.1203 29.475 62.3216 29.3999 62.5611Z" fill="#D67116"/>
<path d="M29.1073 59.7437C29.1424 60.1665 29.3061 60.5698 29.5778 60.9025C29.8495 61.2352 30.217 61.4824 30.6337 61.6128C31.0504 61.7431 31.4977 61.7509 31.9189 61.635C32.3402 61.5191 32.7165 61.2848 33.0003 60.9617C33.284 60.6386 33.4625 60.2412 33.5132 59.8199C33.5638 59.3985 33.4843 58.9721 33.2847 58.5945C33.0851 58.2169 32.7744 57.9051 32.3919 57.6986C32.0094 57.4921 31.5722 57.4001 31.1357 57.4343C30.5507 57.4801 30.0083 57.7491 29.628 58.1822C29.2476 58.6152 29.0603 59.1769 29.1073 59.7437Z" fill="#A85000"/>
<path d="M30.5448 58.4219C30.4664 58.6185 30.4522 58.8338 30.504 59.0385C30.5559 59.2433 30.6713 59.4277 30.8347 59.5669C30.9981 59.7061 31.2017 59.7935 31.4179 59.8171C31.6342 59.8408 31.8527 59.7997 32.0441 59.6993C32.2354 59.5989 32.3904 59.4441 32.4881 59.2557C32.5858 59.0673 32.6215 58.8544 32.5904 58.6458C32.5594 58.4371 32.463 58.2427 32.3143 58.0888C32.1656 57.9348 31.9718 57.8288 31.7589 57.7849C31.5107 57.7149 31.2441 57.7426 31.0168 57.8618C30.7895 57.981 30.6199 58.1823 30.5448 58.4219Z" fill="#D67116"/>
<path d="M29.849 55.5613C29.8847 55.9829 30.0487 56.3849 30.3202 56.7163C30.5916 57.0478 30.9584 57.2939 31.3741 57.4235C31.7898 57.5532 32.2359 57.5606 32.656 57.4449C33.0761 57.3291 33.4513 57.0953 33.7344 56.7731C34.0174 56.4509 34.1955 56.0546 34.2462 55.6344C34.2969 55.2141 34.2179 54.7888 34.0192 54.412C33.8205 54.0352 33.511 53.7239 33.1298 53.5175C32.7486 53.311 32.3127 53.2186 31.8773 53.2519C31.2923 53.2977 30.75 53.5667 30.3696 53.9998C29.9892 54.4328 29.802 54.9945 29.849 55.5613Z" fill="#A85000"/>
<path d="M31.2907 54.2241C31.2124 54.4208 31.1982 54.636 31.25 54.8407C31.3018 55.0455 31.4173 55.2299 31.5807 55.3691C31.7441 55.5084 31.9476 55.5957 32.1639 55.6194C32.3801 55.6431 32.5987 55.6019 32.79 55.5015C32.9814 55.4011 33.1364 55.2463 33.2341 55.0579C33.3318 54.8695 33.3675 54.6567 33.3364 54.448C33.3053 54.2394 33.209 54.045 33.0603 53.891C32.9116 53.7371 32.7177 53.631 32.5049 53.5871C32.2567 53.5182 31.9906 53.5463 31.7635 53.6654C31.5365 53.7845 31.3668 53.9851 31.2907 54.2241Z" fill="#D67116"/>
<path d="M31.3644 51.5838C31.3994 52.0057 31.5628 52.4081 31.8339 52.7401C32.105 53.0721 32.4716 53.3188 32.8874 53.449C33.3032 53.5792 33.7495 53.5871 34.1699 53.4716C34.5903 53.3561 34.966 53.1225 35.2493 52.8002C35.5327 52.478 35.711 52.0816 35.7619 51.6612C35.8127 51.2407 35.7337 50.8151 35.5349 50.4382C35.3361 50.0612 35.0264 49.7498 34.6449 49.5434C34.2634 49.3369 33.8273 49.2446 33.3917 49.2782C32.8076 49.3243 32.2662 49.5929 31.8861 50.0251C31.5061 50.4573 31.3185 51.0178 31.3644 51.5838Z" fill="#A85000"/>
<path d="M32.805 50.2506C32.7267 50.4473 32.7124 50.6625 32.7643 50.8672C32.8161 51.072 32.9315 51.2564 33.095 51.3956C33.2584 51.5349 33.4619 51.6222 33.6782 51.6459C33.8944 51.6695 34.113 51.6284 34.3043 51.528C34.4957 51.4276 34.6507 51.2728 34.7484 51.0844C34.8461 50.896 34.8818 50.6832 34.8507 50.4745C34.8196 50.2659 34.7232 50.0715 34.5746 49.9175C34.4259 49.7636 34.232 49.6575 34.0192 49.6136C33.771 49.5436 33.5043 49.5713 33.277 49.6905C33.0498 49.8098 32.8802 50.011 32.805 50.2506Z" fill="#D67116"/>
<path d="M34.5706 48.7841C34.6067 49.2058 34.771 49.6077 35.0428 49.9391C35.3145 50.2704 35.6816 50.5163 36.0975 50.6456C36.5135 50.7749 36.9597 50.7819 37.3798 50.6657C37.7998 50.5495 38.1749 50.3153 38.4576 49.9926C38.7403 49.67 38.918 49.2734 38.9681 48.853C39.0182 48.4326 38.9386 48.0073 38.7393 47.6307C38.54 47.2541 38.2299 46.9432 37.8482 46.7373C37.4666 46.5313 37.0305 46.4396 36.5951 46.4736C36.3054 46.4963 36.0232 46.5741 35.7647 46.7025C35.5061 46.8309 35.2762 47.0075 35.0882 47.2221C34.9001 47.4367 34.7576 47.6851 34.6688 47.9531C34.58 48.2212 34.5466 48.5035 34.5706 48.7841Z" fill="#B75F08"/>
<path d="M36.0123 47.4469C35.9339 47.6436 35.9197 47.8588 35.9716 48.0635C36.0234 48.2683 36.1388 48.4527 36.3022 48.5919C36.4656 48.7312 36.6692 48.8185 36.8854 48.8422C37.1017 48.8658 37.3202 48.8247 37.5116 48.7243C37.703 48.6239 37.8579 48.4691 37.9556 48.2807C38.0533 48.0923 38.0891 47.8795 38.058 47.6708C38.0269 47.4621 37.9305 47.2677 37.7818 47.1138C37.6331 46.9599 37.4393 46.8538 37.2264 46.8099C36.9783 46.741 36.7121 46.7691 36.4851 46.8882C36.2581 47.0073 36.0883 47.2079 36.0123 47.4469Z" fill="#D67116"/>
<path d="M37.8923 45.9648C37.9283 46.3866 38.0926 46.7885 38.3644 47.1199C38.6362 47.4512 39.0032 47.6971 39.4192 47.8264C39.8352 47.9557 40.2814 47.9627 40.7014 47.8465C41.1215 47.7303 41.4966 47.4961 41.7793 47.1734C42.062 46.8508 42.2396 46.4542 42.2897 46.0338C42.3399 45.6134 42.2603 45.188 42.0609 44.8115C41.8616 44.4349 41.5515 44.124 41.1699 43.918C40.7883 43.7121 40.3522 43.6204 39.9167 43.6544C39.6271 43.6771 39.3449 43.7548 39.0863 43.8833C38.8277 44.0117 38.5979 44.1883 38.4098 44.4029C38.2218 44.6175 38.0793 44.8659 37.9905 45.1339C37.9017 45.402 37.8683 45.6843 37.8923 45.9648Z" fill="#B75F08"/>
<path d="M39.3261 44.6257C39.2478 44.8224 39.2336 45.0376 39.2854 45.2424C39.3372 45.4471 39.4527 45.6315 39.6161 45.7708C39.7795 45.91 39.983 45.9973 40.1993 46.021C40.4155 46.0447 40.6341 46.0035 40.8254 45.9031C41.0168 45.8027 41.1718 45.6479 41.2695 45.4595C41.3672 45.2712 41.4029 45.0583 41.3718 44.8496C41.3407 44.641 41.2444 44.4466 41.0957 44.2926C40.947 44.1387 40.7532 44.0326 40.5403 43.9887C40.2921 43.9198 40.026 43.948 39.7989 44.0671C39.5719 44.1861 39.4022 44.3867 39.3261 44.6257Z" fill="#D67116"/>
<path d="M41.4667 43.6259C41.5028 44.0477 41.6671 44.4496 41.9389 44.781C42.2106 45.1123 42.5777 45.3582 42.9937 45.4875C43.4096 45.6168 43.8558 45.6238 44.2759 45.5076C44.6959 45.3914 45.071 45.1571 45.3537 44.8345C45.6364 44.5119 45.8141 44.1153 45.8642 43.6949C45.9143 43.2745 45.8347 42.8491 45.6354 42.4726C45.4361 42.096 45.126 41.7851 44.7444 41.5791C44.3627 41.3732 43.9266 41.2815 43.4912 41.3155C42.9066 41.3623 42.3651 41.6319 41.9856 42.065C41.606 42.4982 41.4194 43.0596 41.4667 43.6259Z" fill="#B75F08"/>
<path d="M42.9085 42.2887C42.8302 42.4854 42.816 42.7006 42.8678 42.9053C42.9196 43.1101 43.0351 43.2945 43.1985 43.4337C43.3619 43.573 43.5654 43.6603 43.7817 43.684C43.9979 43.7076 44.2165 43.6665 44.4078 43.5661C44.5992 43.4657 44.7542 43.3109 44.8519 43.1225C44.9496 42.9341 44.9853 42.7213 44.9542 42.5126C44.9231 42.3039 44.8268 42.1095 44.6781 41.9556C44.5294 41.8017 44.3355 41.6956 44.1227 41.6517C43.8745 41.5817 43.6078 41.6094 43.3806 41.7286C43.1533 41.8479 42.9837 42.0491 42.9085 42.2887Z" fill="#D67116"/>
<path d="M43.94 40.1064C43.975 40.5283 44.1384 40.9308 44.4095 41.2628C44.6806 41.5948 45.0472 41.8415 45.463 41.9717C45.8788 42.1019 46.3251 42.1097 46.7455 41.9942C47.1659 41.8787 47.5415 41.6451 47.8249 41.3229C48.1082 41.0006 48.2866 40.6042 48.3374 40.1838C48.3883 39.7634 48.3093 39.3378 48.1105 38.9608C47.9117 38.5838 47.6019 38.2725 47.2205 38.066C46.839 37.8595 46.4029 37.7672 45.9673 37.8008C45.6778 37.8232 45.3958 37.9005 45.1372 38.0285C44.8787 38.1565 44.6487 38.3325 44.4604 38.5466C44.2721 38.7608 44.1293 39.0087 44.04 39.2764C43.9507 39.544 43.9167 39.826 43.94 40.1064Z" fill="#B75F08"/>
<path d="M45.3896 38.7713C45.3104 38.9678 45.2954 39.1831 45.3465 39.3882C45.3977 39.5933 45.5126 39.7782 45.6757 39.918C45.8388 40.0578 46.0422 40.1458 46.2586 40.17C46.4749 40.1942 46.6937 40.1536 46.8854 40.0535C47.0772 39.9534 47.2326 39.7988 47.3307 39.6104C47.4288 39.4221 47.4649 39.2091 47.434 39.0002C47.4032 38.7914 47.307 38.5968 47.1583 38.4426C47.0096 38.2884 46.8157 38.1821 46.6027 38.1381C46.3552 38.0672 46.0888 38.094 45.8615 38.2126C45.6343 38.3312 45.4647 38.532 45.3896 38.7713Z" fill="#D67116"/>
<path d="M47.0677 37.085C47.1038 37.5067 47.2681 37.9087 47.5398 38.24C47.8116 38.5714 48.1787 38.8172 48.5946 38.9466C49.0106 39.0759 49.4568 39.0829 49.8769 38.9667C50.2969 38.8504 50.672 38.6162 50.9547 38.2936C51.2374 37.9709 51.415 37.5744 51.4652 37.154C51.5153 36.7336 51.4357 36.3082 51.2364 35.9316C51.037 35.555 50.727 35.2441 50.3453 35.0382C49.9637 34.8323 49.5276 34.7405 49.0921 34.7746C48.8023 34.7967 48.5198 34.8742 48.261 35.0024C48.0022 35.1307 47.7721 35.3073 47.5839 35.522C47.3958 35.7367 47.2533 35.9853 47.1647 36.2536C47.0762 36.5218 47.0432 36.8044 47.0677 37.085Z" fill="#B75F08"/>
<path d="M48.5055 35.7468C48.4271 35.9435 48.4129 36.1587 48.4647 36.3635C48.5166 36.5682 48.632 36.7526 48.7954 36.8919C48.9588 37.0311 49.1624 37.1184 49.3786 37.1421C49.5949 37.1658 49.8134 37.1246 50.0048 37.0242C50.1961 36.9238 50.3511 36.769 50.4488 36.5806C50.5465 36.3923 50.5822 36.1794 50.5511 35.9707C50.5201 35.7621 50.4237 35.5677 50.275 35.4137C50.1263 35.2598 49.9325 35.1537 49.7196 35.1098C49.4714 35.0399 49.2048 35.0675 48.9775 35.1867C48.7502 35.306 48.5806 35.5072 48.5055 35.7468Z" fill="#D67116"/>
<path d="M48.9076 33.2821C48.943 33.705 49.107 34.1083 49.379 34.4409C49.6511 34.7735 50.0188 35.0204 50.4357 35.1505C50.8527 35.2805 51.3001 35.2878 51.7213 35.1715C52.1425 35.0551 52.5187 34.8204 52.8021 34.4969C53.0856 34.1734 53.2636 33.7757 53.3137 33.3542C53.3637 32.9326 53.2836 32.5062 53.0834 32.1288C52.8832 31.7514 52.5719 31.44 52.189 31.234C51.806 31.0281 51.3686 30.9368 50.932 30.9717C50.3475 31.0185 49.806 31.288 49.4264 31.7212C49.0469 32.1544 48.8603 32.7158 48.9076 33.2821Z" fill="#B75F08"/>
<path d="M50.3504 31.9411C50.2721 32.1378 50.2579 32.353 50.3097 32.5578C50.3615 32.7625 50.477 32.947 50.6404 33.0862C50.8038 33.2254 51.0073 33.3128 51.2236 33.3364C51.4398 33.3601 51.6584 33.319 51.8497 33.2186C52.0411 33.1182 52.1961 32.9634 52.2938 32.775C52.3915 32.5866 52.4272 32.3737 52.3961 32.1651C52.365 31.9564 52.2687 31.762 52.12 31.6081C51.9713 31.4541 51.7774 31.3481 51.5646 31.3042C51.3164 31.2342 51.0497 31.2618 50.8225 31.3811C50.5952 31.5003 50.4256 31.7016 50.3504 31.9411Z" fill="#D67116"/>
<path d="M50.5204 29.412C50.5564 29.8338 50.7207 30.2357 50.9925 30.5671C51.2643 30.8984 51.6313 31.1443 52.0473 31.2736C52.4632 31.4029 52.9094 31.4099 53.3295 31.2937C53.7496 31.1775 54.1246 30.9432 54.4073 30.6206C54.69 30.298 54.8677 29.9014 54.9178 29.481C54.9679 29.0606 54.8883 28.6352 54.689 28.2587C54.4897 27.8821 54.1796 27.5712 53.798 27.3652C53.4163 27.1593 52.9802 27.0676 52.5448 27.1016C52.2549 27.1238 51.9725 27.2012 51.7137 27.3295C51.4548 27.4577 51.2247 27.6343 51.0366 27.849C50.8485 28.0637 50.706 28.3123 50.6174 28.5806C50.5288 28.8488 50.4958 29.1314 50.5204 29.412Z" fill="#B75F08"/>
<path d="M51.9383 28.0687C51.86 28.2654 51.8457 28.4806 51.8976 28.6854C51.9494 28.8901 52.0648 29.0745 52.2283 29.2138C52.3917 29.353 52.5952 29.4403 52.8115 29.464C53.0277 29.4877 53.2463 29.4465 53.4376 29.3461C53.629 29.2457 53.784 29.0909 53.8817 28.9025C53.9794 28.7142 54.0151 28.5013 53.984 28.2926C53.9529 28.084 53.8565 27.8896 53.7079 27.7356C53.5592 27.5817 53.3653 27.4756 53.1525 27.4317C52.9043 27.3618 52.6376 27.3894 52.4103 27.5086C52.1831 27.6279 52.0135 27.8291 51.9383 28.0687Z" fill="#D67116"/>
<path d="M50.7564 25.1435C50.7914 25.5654 50.9548 25.9678 51.2259 26.2998C51.497 26.6318 51.8636 26.8785 52.2794 27.0087C52.6952 27.1389 53.1415 27.1468 53.5619 27.0313C53.9823 26.9158 54.3579 26.6822 54.6413 26.3599C54.9246 26.0377 55.103 25.6413 55.1538 25.2209C55.2047 24.8004 55.1257 24.3748 54.9269 23.9979C54.7281 23.6209 54.4184 23.3095 54.0369 23.1031C53.6554 22.8966 53.2193 22.8043 52.7837 22.8379C52.1996 22.884 51.6581 23.1526 51.2781 23.5848C50.8981 24.017 50.7105 24.5775 50.7564 25.1435Z" fill="#B75F08"/>
<path d="M52.1959 23.814C52.1167 24.0105 52.1017 24.2259 52.1528 24.4309C52.204 24.636 52.3189 24.8209 52.482 24.9607C52.645 25.1005 52.8485 25.1885 53.0648 25.2127C53.2812 25.237 53.5 25.1963 53.6917 25.0962C53.8834 24.9962 54.0388 24.8415 54.1369 24.6531C54.235 24.4648 54.2711 24.2518 54.2403 24.043C54.2095 23.8341 54.1132 23.6395 53.9646 23.4853C53.8159 23.3311 53.622 23.2249 53.409 23.1808C53.1615 23.1099 52.8951 23.1367 52.6678 23.2553C52.4406 23.3739 52.271 23.5747 52.1959 23.814Z" fill="#D67116"/>
<path d="M51.1995 20.8302C51.2345 21.2521 51.3979 21.6546 51.669 21.9866C51.9401 22.3186 52.3067 22.5653 52.7225 22.6955C53.1383 22.8256 53.5846 22.8335 54.005 22.718C54.4254 22.6025 54.801 22.3689 55.0844 22.0467C55.3678 21.7244 55.5461 21.328 55.597 20.9076C55.6478 20.4872 55.5688 20.0616 55.37 19.6846C55.1712 19.3076 54.8615 18.9963 54.48 18.7898C54.0985 18.5833 53.6624 18.491 53.2268 18.5246C52.6431 18.5718 52.1023 18.8406 51.7225 19.2726C51.3427 19.7045 51.1547 20.2645 51.1995 20.8302Z" fill="#B75F08"/>
<path d="M52.6494 19.4788C52.5702 19.6753 52.5552 19.8906 52.6063 20.0957C52.6575 20.3008 52.7723 20.4857 52.9354 20.6255C53.0985 20.7653 53.302 20.8533 53.5183 20.8775C53.7347 20.9017 53.9535 20.8611 54.1452 20.761C54.3369 20.6609 54.4923 20.5063 54.5904 20.3179C54.6885 20.1296 54.7246 19.9166 54.6938 19.7078C54.663 19.4989 54.5667 19.3043 54.4181 19.1501C54.2694 18.9959 54.0755 18.8896 53.8625 18.8456C53.615 18.7747 53.3486 18.8015 53.1213 18.9201C52.8941 19.0387 52.7244 19.2395 52.6494 19.4788Z" fill="#D67116"/>
<path d="M50.0021 16.9039C50.0374 17.3259 50.2011 17.7283 50.4725 18.0602C50.744 18.3921 51.1109 18.6385 51.5269 18.7684C51.9429 18.8982 52.3893 18.9057 52.8097 18.7898C53.2301 18.6738 53.6055 18.4397 53.8886 18.1171C54.1716 17.7944 54.3495 17.3977 54.3998 16.9771C54.4501 16.5565 54.3704 16.1309 54.171 15.7542C53.9716 15.3774 53.6613 15.0664 53.2794 14.8605C52.8975 14.6545 52.4611 14.5629 52.0255 14.5973C51.4414 14.6433 50.9002 14.9122 50.5207 15.3447C50.1413 15.7773 49.9547 16.3381 50.0021 16.9039Z" fill="#B75F08"/>
<path d="M51.4437 15.5667C51.3645 15.7632 51.3495 15.9785 51.4006 16.1836C51.4518 16.3887 51.5667 16.5736 51.7297 16.7134C51.8928 16.8532 52.0963 16.9412 52.3126 16.9654C52.529 16.9896 52.7478 16.949 52.9395 16.8489C53.1312 16.7488 53.2866 16.5942 53.3847 16.4058C53.4829 16.2175 53.5189 16.0045 53.4881 15.7957C53.4573 15.5868 53.361 15.3922 53.2124 15.238C53.0637 15.0838 52.8698 14.9775 52.6568 14.9335C52.4093 14.8637 52.1434 14.891 51.9164 15.0094C51.6895 15.1279 51.5197 15.328 51.4437 15.5667Z" fill="#D67116"/>
<path d="M47.8488 13.308C47.8846 13.7296 48.0486 14.1316 48.32 14.463C48.5915 14.7945 48.9582 15.0406 49.374 15.1702C49.7897 15.2999 50.2358 15.3073 50.6559 15.1916C51.076 15.0758 51.4512 14.842 51.7342 14.5198C52.0173 14.1975 52.1954 13.8013 52.2461 13.3811C52.2968 12.9608 52.2178 12.5355 52.0191 12.1587C51.8204 11.7819 51.5109 11.4706 51.1297 11.2642C50.7484 11.0577 50.3126 10.9653 49.8772 10.9986C49.2922 11.0444 48.7498 11.3134 48.3695 11.7465C47.9891 12.1795 47.8018 12.7412 47.8488 13.308Z" fill="#B75F08"/>
<path d="M49.2927 11.9631C49.2143 12.1598 49.2001 12.375 49.252 12.5798C49.3038 12.7845 49.4192 12.9689 49.5826 13.1082C49.746 13.2474 49.9496 13.3347 50.1658 13.3584C50.3821 13.3821 50.6006 13.3409 50.792 13.2405C50.9834 13.1401 51.1383 12.9853 51.236 12.7969C51.3337 12.6086 51.3695 12.3957 51.3384 12.187C51.3073 11.9784 51.2109 11.784 51.0622 11.63C50.9135 11.4761 50.7197 11.37 50.5068 11.3261C50.2587 11.2562 49.992 11.2838 49.7647 11.403C49.5374 11.5223 49.3678 11.7235 49.2927 11.9631Z" fill="#D67116"/>
</svg>
